<?xml version="1.0" encoding="UTF-8" standalone="no"?>
<svg
   xmlns:dc="http://purl.org/dc/elements/1.1/"
   xmlns:cc="http://creativecommons.org/ns#"
   xmlns:rdf="http://www.w3.org/1999/02/22-rdf-syntax-ns#"
   xmlns:svg="http://www.w3.org/2000/svg"
   xmlns="http://www.w3.org/2000/svg"
   viewBox="0 0 800 800"
   height="800"
   width="800"
   id="svg2"
   version="1.1">
  <metadata
     id="metadata8">
    <rdf:RDF>
      <cc:Work
         rdf:about="">
        <dc:format>image/svg+xml</dc:format>
        <dc:type
           rdf:resource="http://purl.org/dc/dcmitype/StillImage" />
        <dc:title></dc:title>
      </cc:Work>
    </rdf:RDF>
  </metadata>
  <defs
     id="defs6" />
  <path
     id="path4487"
     d="m 23.245303,9.1079972 h 94.652327 l 10.4278,10.3829858 v 4.951873 h 109.57209 l 5.13369,5.111628 v 20.765971 l 6.4171,6.389534 h 40.74861 l 5.29414,-5.271358 V 34.666112 l 9.54543,-9.504426 h 19.81283 l 3.48928,3.474318 V 47.76464 l 10.12698,10.083474 c 0,0 65.95586,-11.361381 120.50126,0.778749 l 9.94652,-9.903798 V 27.957118 l 4.49197,-4.472686 h 21.81816 l 9.62564,9.584291 V 47.76464 l 6.2567,6.229806 h 119.19772 l 6.49733,-6.4694 V 26.679212 h 33.60964 V 19.650711 L 680.8383,9.2677262 h 92.56676 l 5.37431,5.3512468 V 167.24886 c 0,0 28.79679,31.62816 0,60.38106 v 338.00611 c 0,0 29.11765,27.47499 0,66.45111 v 148.23709 l -10.38768,10.34306 h -86.75128 l -11.61095,-11.56104 v -4.21313 l -7.32118,-1.95325 H 560.51754 l -9.68758,-9.64595 v -15.71601 l -4.5412,-4.52173 h -31.01184 l -9.73047,9.6887 v 9.84841 l -8.85134,8.81329 h -26.49835 l -4.98717,-4.96573 v -17.90452 l -5.44757,-5.42417 h -19.08395 v 33.0589 h -15.88234 l -9.38499,9.34466 h -29.11765 l -9.10428,-9.06513 H 360.46428 V 742.30653 H 338.6461 l -4.49201,4.47269 v 20.60621 l -3.93046,3.91362 h -25.5882 l -8.70323,-8.66582 v -10.26317 l -10.40772,-10.36304 h -30.62161 l -5.36432,5.34126 v 14.28661 l -9.91141,9.86883 H 134.58211 l -5.71273,5.68816 v 6.32714 l -9.01529,8.97653 H 28.539416 l -9.240258,-9.20056 V 626.79255 c 0,0 -24.8017396,-24.41669 0,-59.55916 V 229.42742 c 0,0 -21.760629,-28.46388 0,-61.67178 V 14.479781 Z"
     style="fill:#777777;fill-opacity:1;fill-rule:evenodd;stroke:#000000;stroke-width:5.00889969;stroke-linecap:butt;stroke-linejoin:miter;stroke-miterlimit:4;stroke-dasharray:none;stroke-opacity:1" />
  <path
     id="path4489"
     d="m 239.5018,663.39585 h 55.18709 v -9.90377 l -4.81282,-4.79218 h -46.20315 l -4.33155,4.31297 z"
     style="fill:#000000;fill-opacity:0.5;fill-rule:evenodd;stroke:#000000;stroke-width:5.00889969;stroke-linecap:butt;stroke-linejoin:miter;stroke-miterlimit:4;stroke-dasharray:none;stroke-opacity:1" />
  <path
     id="path4493"
     d="M 270.30391,578.41511 V 607.168 l 4.17112,4.15317 h 35.29405 l 4.49199,-4.47268 v -18.8491 l -10.58821,-9.90377 z"
     style="fill:#000000;fill-opacity:0.5;fill-rule:evenodd;stroke:#000000;stroke-width:5.00889969;stroke-linecap:butt;stroke-linejoin:miter;stroke-miterlimit:4;stroke-dasharray:none;stroke-opacity:1" />
  <path
     id="path4495"
     d="m 213.94157,523.5544 h -28.58674 l -5.89886,-5.87349 V 484.2471 l 5.33166,-5.3087 h 18.03687 l 11.23051,10.22212 z"
     style="fill:#000000;fill-opacity:0.5;fill-rule:evenodd;stroke:#000000;stroke-width:5.00889969;stroke-linecap:butt;stroke-linejoin:miter;stroke-miterlimit:4;stroke-dasharray:none;stroke-opacity:1" />
  <path
     style="fill:#000000;fill-opacity:0.5;fill-rule:evenodd;stroke:#000000;stroke-width:5.00889969;stroke-linecap:butt;stroke-linejoin:miter;stroke-miterlimit:4;stroke-dasharray:none;stroke-opacity:1"
     d="m 560.31121,662.75689 h -55.18707 v -9.90377 l 4.81278,-4.79215 h 46.2032 l 4.33154,4.31291 z"
     id="path4503" />
  <path
     style="fill:#000000;fill-opacity:0.5;fill-rule:evenodd;stroke:#000000;stroke-width:5.00889969;stroke-linecap:butt;stroke-linejoin:miter;stroke-miterlimit:4;stroke-dasharray:none;stroke-opacity:1"
     d="m 529.5091,577.77614 v 28.75289 l -4.17109,4.15318 H 490.0439 l -4.49193,-4.47269 v -18.8491 l 10.58819,-9.90374 z"
     id="path4505" />
  <path
     style="fill:#000000;fill-opacity:0.5;fill-rule:evenodd;stroke:#000000;stroke-width:5.00889969;stroke-linecap:butt;stroke-linejoin:miter;stroke-miterlimit:4;stroke-dasharray:none;stroke-opacity:1"
     d="m 585.87146,522.91547 h 28.58675 l 5.89887,-5.8735 v -33.43381 l -5.3317,-5.30873 H 596.9885 l -11.23052,10.22214 z"
     id="path4507" />
  <path
     id="path4509"
     d="m 560.31121,133.26482 h -55.18707 v 9.90375 l 4.81278,4.79217 h 46.2032 l 4.33154,-4.31293 z"
     style="fill:#000000;fill-opacity:0.5;fill-rule:evenodd;stroke:#000000;stroke-width:5.00889969;stroke-linecap:butt;stroke-linejoin:miter;stroke-miterlimit:4;stroke-dasharray:none;stroke-opacity:1" />
  <path
     id="path4511"
     d="m 529.5091,218.24555 v -28.75287 l -4.17109,-4.1532 H 490.0439 l -4.49193,4.47268 v 18.84909 l 10.58819,9.90379 z"
     style="fill:#000000;fill-opacity:0.5;fill-rule:evenodd;stroke:#000000;stroke-width:5.00889969;stroke-linecap:butt;stroke-linejoin:miter;stroke-miterlimit:4;stroke-dasharray:none;stroke-opacity:1" />
  <path
     id="path4513"
     d="m 585.87146,273.10624 h 28.58675 l 5.89887,5.8735 v 33.43379 l -5.3317,5.30874 H 596.9885 l -11.23052,-10.22214 z"
     style="fill:#000000;fill-opacity:0.5;fill-rule:evenodd;stroke:#000000;stroke-width:5.00889969;stroke-linecap:butt;stroke-linejoin:miter;stroke-miterlimit:4;stroke-dasharray:none;stroke-opacity:1" />
  <path
     id="path4515"
     d="m 570.59534,127.99654 h 55.81223 v 14.90966 l -6.57954,6.5512 h -45.14887 l -4.19725,-6.09939 z"
     style="fill:#000000;fill-opacity:0.5;fill-rule:evenodd;stroke:#000000;stroke-width:5.00889969;stroke-linecap:butt;stroke-linejoin:miter;stroke-miterlimit:4;stroke-dasharray:none;stroke-opacity:1" />
  <path
     style="fill:#000000;fill-opacity:0.5;fill-rule:evenodd;stroke:#000000;stroke-width:5.00889969;stroke-linecap:butt;stroke-linejoin:miter;stroke-miterlimit:4;stroke-dasharray:none;stroke-opacity:1"
     d="m 239.5018,131.98691 h 55.18709 v 9.90378 l -4.81282,4.79214 h -46.20315 l -4.33155,-4.31294 z"
     id="path4525" />
  <path
     style="fill:#000000;fill-opacity:0.5;fill-rule:evenodd;stroke:#000000;stroke-width:5.00889969;stroke-linecap:butt;stroke-linejoin:miter;stroke-miterlimit:4;stroke-dasharray:none;stroke-opacity:1"
     d="m 270.30391,216.96764 v -28.75287 l 4.17112,-4.15318 h 35.29405 l 4.49199,4.47266 v 18.84913 l -10.58821,9.90374 z"
     id="path4527" />
  <path
     style="fill:#000000;fill-opacity:0.5;fill-rule:evenodd;stroke:#000000;stroke-width:5.00889969;stroke-linecap:butt;stroke-linejoin:miter;stroke-miterlimit:4;stroke-dasharray:none;stroke-opacity:1"
     d="m 213.94157,271.82834 h -28.58674 l -5.89886,5.87347 v 33.43381 l 5.33166,5.30878 h 18.03687 l 11.23051,-10.22219 z"
     id="path4529" />
  <ellipse
     ry="8.3063898"
     rx="8.3422394"
     cy="750.29346"
     cx="171.48045"
     id="path4531"
     style="fill:#000000;fill-opacity:0.5;stroke:#000000;stroke-width:5.00889969;stroke-miterlimit:4;stroke-dasharray:none;stroke-opacity:1" />
  <ellipse
     ry="8.3063898"
     rx="8.3422394"
     style="fill:#000000;fill-opacity:0.5;stroke:#000000;stroke-width:5.00889969;stroke-miterlimit:4;stroke-dasharray:none;stroke-opacity:1"
     id="circle4533"
     cx="629.0202"
     cy="750.29346" />
  <ellipse
     ry="8.3063898"
     rx="8.3422394"
     cy="46.80624"
     cx="171.48044"
     id="circle4535"
     style="fill:#000000;fill-opacity:0.5;stroke:#000000;stroke-width:5.00889969;stroke-miterlimit:4;stroke-dasharray:none;stroke-opacity:1" />
  <path
     id="path4539"
     d="m 379.71556,9.4274802 h 40.42776 l 18.77007,18.6893678 v 11.341409 l -11.50971,3.070765 h -53.4635 L 359.37701,38.643599 V 27.318153 Z"
     style="fill:#7e7e7e;fill-opacity:1;fill-rule:evenodd;stroke:#000000;stroke-width:5.00889969;stroke-linecap:butt;stroke-linejoin:miter;stroke-miterlimit:4;stroke-dasharray:none;stroke-opacity:1" />
  <rect
     y="-0.91522694"
     x="-0.18079096"
     height="3.0288677"
     width="3.0288677"
     id="rect4499"
     style="fill:#777777;fill-opacity:0;stroke-width:4.30957222;stroke-miterlimit:4;stroke-dasharray:none" />
  <rect
     y="794.49255"
     x="795.58331"
     height="6.5922418"
     width="6.5922418"
     id="rect4501"
     style="fill:#777777;fill-opacity:0;stroke-width:4.30957222;stroke-miterlimit:4;stroke-dasharray:none" />
</svg>
