<?xml version="1.0" encoding="UTF-8" standalone="no"?>
<svg
   xmlns:dc="http://purl.org/dc/elements/1.1/"
   xmlns:cc="http://creativecommons.org/ns#"
   xmlns:rdf="http://www.w3.org/1999/02/22-rdf-syntax-ns#"
   xmlns:svg="http://www.w3.org/2000/svg"
   xmlns="http://www.w3.org/2000/svg"
   version="1.1"
   id="svg2"
   width="880"
   height="800"
   viewBox="0 0 880 800">
  <metadata
     id="metadata8">
    <rdf:RDF>
      <cc:Work
         rdf:about="">
        <dc:format>image/svg+xml</dc:format>
        <dc:type
           rdf:resource="http://purl.org/dc/dcmitype/StillImage" />
        <dc:title></dc:title>
      </cc:Work>
    </rdf:RDF>
  </metadata>
  <defs
     id="defs6" />
  <path
     id="path4489"
     d="m 182.6349,32.517355 h 189.73367 l 11.1982,20.07591 h 12.5185 l 15.5071,-45.0962737 c 19.76523,0 38.83193,0 56.81526,0 l 15.5071,45.0962737 h 12.5185 l 11.1982,-20.07591 H 697.3651 l 4.67493,5.428945 v 230.25826 l -10.14801,10.50375 v 28.02566 H 862.9871 l 8.95491,9.26891 v 170.29184 l -9.47539,9.80762 H 692.42898 v 24.93663 l 11.48314,11.88579 v 227.71116 l -6.54702,6.7766 H 510.93148 l -11.5097,-20.63441 h -15.50705 l -14.59493,45.7249 c -20.35103,0 -39.38958,0 -58.6396,0 l -14.59493,-45.7249 h -15.50705 l -11.5097,20.63441 H 182.6349 l -6.54702,-6.7766 V 532.92476 l 11.48314,-11.88579 V 496.10234 H 17.533376 L 8.0579947,486.29472 V 316.00288 l 8.9549013,-9.26891 H 188.10798 V 278.70831 L 177.95997,268.20456 V 37.9463 Z"
     style="fill:#777777;fill-opacity:1;fill-rule:evenodd;stroke:#000000;stroke-width:4.99398947;stroke-linecap:butt;stroke-linejoin:miter;stroke-miterlimit:4;stroke-dasharray:none;stroke-opacity:1" />
  <path
     style="fill:#000000;fill-opacity:0.5;fill-rule:evenodd;stroke:#000000;stroke-width:4.99398947;stroke-linecap:butt;stroke-linejoin:miter;stroke-miterlimit:4;stroke-dasharray:none;stroke-opacity:1"
     d="m 513.07252,122.44906 h 48.34561 V 97.664725 h -38.99576 l -9.69194,10.031755 z"
     id="path4491" />
  <path
     id="path4495"
     d="m 512.75,274.58546 h 48.34559 v 24.78434 h -38.99572 l -9.69193,-10.03178 z"
     style="fill:#000000;fill-opacity:0.5;fill-rule:evenodd;stroke:#000000;stroke-width:4.99398947;stroke-linecap:butt;stroke-linejoin:miter;stroke-miterlimit:4;stroke-dasharray:none;stroke-opacity:1" />
  <path
     id="path4497"
     d="M 366.58115,121.78143 H 318.23557 V 96.997115 h 38.99573 l 9.69194,10.031735 z"
     style="fill:#000000;fill-opacity:0.5;fill-rule:evenodd;stroke:#000000;stroke-width:4.99398947;stroke-linecap:butt;stroke-linejoin:miter;stroke-miterlimit:4;stroke-dasharray:none;stroke-opacity:1" />
  <path
     style="fill:#000000;fill-opacity:0.5;fill-rule:evenodd;stroke:#000000;stroke-width:4.99398947;stroke-linecap:butt;stroke-linejoin:miter;stroke-miterlimit:4;stroke-dasharray:none;stroke-opacity:1"
     d="m 366.90366,273.91783 h -48.34561 v 24.78434 h 38.99577 l 9.69193,-10.03178 z"
     id="path4499" />
  <path
     id="path4501"
     d="m 513.07252,501.05914 h 48.34561 v -24.7843 h -38.99576 l -9.69194,10.03177 z"
     style="fill:#000000;fill-opacity:0.5;fill-rule:evenodd;stroke:#000000;stroke-width:4.99398947;stroke-linecap:butt;stroke-linejoin:miter;stroke-miterlimit:4;stroke-dasharray:none;stroke-opacity:1" />
  <path
     style="fill:#000000;fill-opacity:0.5;fill-rule:evenodd;stroke:#000000;stroke-width:4.99398947;stroke-linecap:butt;stroke-linejoin:miter;stroke-miterlimit:4;stroke-dasharray:none;stroke-opacity:1"
     d="m 513.07252,677.23012 h 48.34561 v 24.78431 h -38.99576 l -9.69194,-10.03173 z"
     id="path4503" />
  <path
     style="fill:#000000;fill-opacity:0.5;fill-rule:evenodd;stroke:#000000;stroke-width:4.99398947;stroke-linecap:butt;stroke-linejoin:miter;stroke-miterlimit:4;stroke-dasharray:none;stroke-opacity:1"
     d="m 366.58115,500.39159 h -48.34558 v -24.78437 h 38.99573 l 9.69194,10.03176 z"
     id="path4505" />
  <path
     id="path4507"
     d="m 367.22614,676.56246 h -48.34556 v 24.78432 h 38.99572 l 9.69192,-10.03173 z"
     style="fill:#000000;fill-opacity:0.5;fill-rule:evenodd;stroke:#000000;stroke-width:4.99398947;stroke-linecap:butt;stroke-linejoin:miter;stroke-miterlimit:4;stroke-dasharray:none;stroke-opacity:1" />
  <rect
     style="fill:#777777;fill-opacity:0;stroke-width:4.37300014;stroke-miterlimit:4;stroke-dasharray:none"
     id="rect4490"
     width="8.9198608"
     height="8.9198608"
     x="-1.4866434"
     y="-0.9291541" />
  <rect
     style="fill:#777777;fill-opacity:0;stroke-width:4.37300014;stroke-miterlimit:4;stroke-dasharray:none"
     id="rect4492"
     width="7.0615563"
     height="7.0615563"
     x="875.81885"
     y="795.5401" />
</svg>
