<?xml version="1.0" encoding="UTF-8"?>
<!-- Created with Inkscape (http://www.inkscape.org/) -->
<svg width="3200" height="3200" version="1.1" viewBox="0 0 846.67 846.67" xmlns="http://www.w3.org/2000/svg" xmlns:cc="http://creativecommons.org/ns#" xmlns:dc="http://purl.org/dc/elements/1.1/" xmlns:rdf="http://www.w3.org/1999/02/22-rdf-syntax-ns#">
 <metadata>
  <rdf:RDF>
   <cc:Work rdf:about="">
    <dc:format>image/svg+xml</dc:format>
    <dc:type rdf:resource="http://purl.org/dc/dcmitype/StillImage"/>
   </cc:Work>
  </rdf:RDF>
 </metadata>
 <g transform="translate(0 635)" fill="#777" stroke="#000">
  <path d="m453.76 202.41h17.198l2.6458 2.6458h30.427l2.6458-2.6458h30.427l2.6458 2.6458h31.75l2.6458-2.6458h29.104l2.6458 2.6458h30.427l2.6458-2.6458h30.427l2.6458 2.6458h31.75l2.6458-2.6458h29.104l2.6458 2.6458h29.104l2.6458-2.6458h31.75l2.6458 2.6458h34.396l1.3229-1.3229v-34.396l-2.6458-2.6458v-30.427l2.6458-2.6458v-29.104l-2.6458-2.6458v-30.427l2.6458-2.6458v-31.75l-2.6458-2.6458v-29.104l2.6458-2.6458v-30.427l-2.6458-2.6458v-30.427l2.6458-2.6458v-34.396l-2.6458-2.6458v-27.781l2.6458-2.6458v-31.75l-2.6458-2.6458v-19.844h6.6146v391.58l-2.6458 2.6458h-387.61z" stroke-width="1.2621"/>
  <path d="m9.2604-181.24v17.198l-2.6458 2.6458v30.427l2.6458 2.6458v30.427l-2.6458 2.6458v31.75l2.6458 2.6458v29.104l-2.6458 2.6458v30.427l2.6458 2.6458v30.427l-2.6458 2.6458v31.75l2.6458 2.6458v29.104l-2.6458 2.6458v29.104l2.6458 2.6458v31.75l-2.6458 2.6458v34.396l1.3229 1.3229h34.396l2.6458-2.6458h30.427l2.6458 2.6458h29.104l2.6458-2.6458h30.427l2.6458 2.6458h31.75l2.6458-2.6458h29.104l2.6458 2.6458h30.427l2.6458-2.6458h30.427l2.6458 2.6458h34.396l2.6458-2.6458h27.781l2.6458 2.6458h31.75l2.6458-2.6458h19.844v6.6146h-391.58l-2.6458-2.6458v-387.61z" stroke-width="1.2621"/>
  <path transform="translate(0 -85.333)" d="m844.02-163.38h-6.6146v-30.427l2.6458-2.6458v-29.104l-2.6458-2.6458v-30.427l2.6458-2.6458v-33.073l-2.6458-2.6458v-30.427l2.6458-2.6458v-29.104l-2.6458-2.6458v-30.427l2.6458-2.6458v-33.073l-2.6458-2.6458v-13.229h6.6146z" stroke-width="1.2621"/>
  <path transform="translate(0 -85.333)" d="m2.6458-164.7h6.6146v-30.427l-2.6458-2.6458v-29.104l2.6458-2.6458v-30.427l-2.6458-2.6458-1e-7 -33.073 2.6458-2.6458v-30.427l-2.6458-2.6458-1e-7 -29.104 2.6458-2.6458v-30.427l-2.6458-2.6458v-33.073l2.6458-2.6458v-13.229h-6.6146z" stroke-width="1.2621"/>
  <path transform="translate(0 -635)" d="m420.69 844.02-1.5875-2.9766c-1.0444-0.7717-2.3075-1.5434-3.7042-2.3151v-3.9688c1.7639-0.1557 3.5278-0.15211 5.2917-1.3229 1.3075-0.8974 2.5496-1.8602 2.6458-3.9688-1.2174-2.3785-2.5766-3.3378-3.9688-3.9688-1.0882-0.6757-2.5382-0.98953-3.9688-1.3229l-1.3229-7.9375h2.6458v-27.781l-1.3229-2.6458v-33.073l2.6458-5.2917-1.3229-6.6146-7.9375-1.3229 5.2917-6.6146-2.6458-3.9688-6.6146-3.9688v-9.2604c2.2729-0.27092 4.5162-0.61563 6.6146-1.3229 1.6912-1.1019 3.1547-2.3405 3.9688-3.9688 0.87232-2.3187 0.51924-5.097 0-7.9375l-2.6458 5.2917c-1.7189 0.1581-2.8544 0.73298-3.9688 1.3229-0.52104 0.79202-0.5187 2.1822-0.42995 3.6711-1.5966-0.11634-3.1804-0.34787-4.8617 0.29766-0.0545 1.2139-0.0324 2.5809 0 3.9688h-2.6458v-64.823c-3.7977-2.7783-7.6339-5.5127-10.583-9.2604-3.2651-3.7365-5.6557-7.801-7.9375-11.906l-103.37-0.57456c-11.958-3.3634-23.186-8.3399-34.396-17.198-6.2973-5.0396-11.527-10.634-14.365-16.623v-6.6146l2.6458-2.6458v-5.2917l-1.3229-2.6458 1.3229-2.6458c1.0503-1.7639 1.5197-3.5278 1.3229-5.2917l-1.8039-15.207 1.8039-5.9598c-0.16102-2.7058-1.1704-5.1464-5.2917-6.6146-3.7433-0.68588-5.9112 0.87886-7.9375 2.6458l-1.3229 6.6146-5.2917 1.3229-1.3229-93.927c-2.031-0.92229-3.958-2.0006-5.2917-3.9688-1.0247-2.2718-0.85157-4.4674 0-6.6146l1.3229-2.6458c-2.8536-3.8623-6.5789-6.3483-11.906-6.6146-2.4357 0.987-5.0054 1.907-7.9375 2.6458-4.3199 0.75545-8.6637 1.427-13.229 1.3229l-1.3229-6.6146-3.9688 1.3229-31.75-1.3229-3.9688 5.2917c-0.63015-2.2049-1.2921-4.4097-1.3229-6.6146-3e-4 -1.47 0.53168-2.7626 1.3229-3.9688l9.2604-1.3229c1.0013-1.9904 0.44874-2.945 0-3.9688h-10.583l-3.9688 5.2917v5.2917h-7.9375c-1.219-2.9811-2.4855-5.933-5.2917-7.9375-2.4363-1.1574-4.5219-0.56066-6.6146 0-3.396 2.1992-5.1963 4.9967-6.6146 7.9375h-6.6146l-2.6458-9.2604c-0.81867-0.69309-1.912-1.2489-3.9688-1.3229h-55.562c-1.7639 1.6791-3.5278 2.1891-5.2917 2.6458h-22.49v-3.9688c-2.1523-0.99923-4.1828-2.1-5.2917-3.9688v-5.2917c1.4157-1.2997 3.0018-2.395 5.2917-2.6458l1.3229-3.9688c1.9186-0.82267 4.1676-1.2048 6.6146-1.3229-1.6324 3.729-0.55061 5.737 0 7.9375 1.2005 2.1622 3.216 3.6528 6.6146 3.9688 2.5069-0.13456 4.8891-0.35879 6.6146-2.6458 1.257-2.2378 1.6535-4.9059 1.3229-7.9375 1.3732 0.18957 2.6834 0.69436 3.9688 1.3229h58.208l3.9688-1.3229v-7.9375h9.2604l3.9688 7.9375h9.2604l2.6458-7.9375h9.2604v5.2917c1.2898 3.3048 3.3193 4.2054 5.2917 5.2917h9.2604c0.62924-0.74746 1.2927-1.4705 1.3229-2.6458-0.0306-1.11-0.4988-1.9768-1.3229-2.6458l-7.9375-1.3229-1.3229-9.2604h1.3229l1.3229 3.9687 30.427 1.3229 2.6458-2.6458 2.6458 2.6458 2.6458-1.3229v-5.0271l13.097 0.13228c3.4181 2.0459 5.0422 4.8094 6.7469 7.5406h7.9375l2.6458 2.6458 13.229-9.2604-1.3229-7.9375-5.2917-6.6146v-186.53l-18.521-17.198 1.3229-10.583-1.3229-1.3229-0.59531-47.03 4.6302-0.26459c1.0562-1.9282 0.58738-3.0939-0.46302-3.9688l-4.8286 0.13229-0.1323-15.478 7.4083-0.26459c0.94017-1.6977 2.2519-3.9908 2.3151-5.6885 1.1494-0.177 2.2556-0.0087 3.5719-1.5214 1.0316-5.4479 1.1799-8.275 0.32408-12.07-0.61355-3.651-1.9435-5.6622-4.4251-7.4432l-7.9375 1.3229 1.3229-3.9688 6.7469-6.9453 5.2917-1.3229 2.6458 1.3229h5.2917l1.3229-2.6458 10.583 6.6146 7.9375 9.2604v2.6458c-1.3229-0.99582-2.6458-1.5593-3.9688-1.3229-1.5875 0.52916-2.4694 1.4111-2.6458 2.6458-0.7563 2.1993 0.16527 3.7884 1.3229 5.2917 2.3046 1.2271 3.0132 0.45924 3.9688 0l1.3229 5.2917-3.9688 6.6146v17.198h-3.9688c-1.4365 0.63307-1.2279 1.6774-1.3229 2.6458 0.84135 1.9249 2.4482 2.8929 3.9688 3.9688v42.333l18.521 19.844 1.3229 189.18 6.4408 11.064h9.2604l3.4744-3.1268 31.095-22.49-2.1914-2.8329-33.527 25.323-5.6791-0.65481 38.752-29.772 7.9375 1.3229 1.3229-3.9688 50.271-35.719c2.0231-3.4265 4.0229-6.8657 7.9375-9.2604 4.8634-1.713 10.13-1.8142 15.875 0 5.0476 3.3911 9.8105 7.1673 11.906 14.552 0.18412 4.6472-0.89386 8.4912-2.6458 11.906-2.9533 4.006-6.7695 6.6313-10.583 9.2604l-11.906 3.9688-84.667 64.823-3.9688-1.3229 5.5723-4.824 9.8084-7.6436 20.338-13.991-2.0713-1.8975-38.471 23.812-0.46772 5.8662c-0.48087 2.4755 1.206 5.2219 2.6458 7.9375l-5.2917 3.9688 3.9688 6.6146-1.3229 10.583-5.2917 7.9375-9.2604-6.6146c-4.3737 1.6625-6.3776 4.833-8.0443 8.2181-5.2136 1.1639-6.1942 4.5853-7.8307 7.6569l2.6458 6.6146 4.8372 0.37418-0.86849 4.9175v88.635l1.3229 3.9688-2.6458 5.2917c-0.31555 2.2049 0.40497 4.4097 1.3229 6.6146l5.2917 1.3229-1.3229-7.9375 9.2604-9.2604 3.9688-11.906 7.9375-6.6146c7.7728-3.9307 13.206-2.7559 18.521-1.3229 4.2431 1.8411 7.7513 4.509 10.583 7.9375 2.2054 2.5198 3.4917 5.4381 4.53 8.1246 1.3082 4.3013 0.84627 8.5666 0.76165 13.042-0.52353 6.2288-3.7279 10.16-7.9375 13.229-3.3678 2.123-6.8634 4.268-10.583 4.6302-2.3516 2.6088-7.0129 5.4175-10.775 9.7896-3.0311-2.9939-3.9591-3.5741-5.4306-3.9688-1.4839 0.52077-1.6802 1.748-2.3151 2.7781-0.0459 2.8838 2.1702 3.917 3.9688 5.2917h104.51l2.6458 2.6458c5.7326-3.412 11.465-6.9255 17.198-7.9375v-13.229c5.6016-2.1071 11.198-4.2172 18.521-5.2917 5.7784-0.7186 9.2588 1.3533 13.663 2.3519 0.77714 2.236 2.0098 4.5479 3.5345 6.9085 2.142 1.9318 4.6753 3.7332 7.9375 5.2917l5.2917-2.6458c1.8236 0.64017 3.7562 0.67172 5.8062 1.991 2.2567 0.65948 3.3787 2.1348 4.7772 3.3006 1.9476 1.7364 3.0031 4.1418 3.9688 6.6146l97.896-1.3229c1.6646 1.3786 3.4514 2.146 5.2917 2.6458 2.6185-0.84036 5.0444-1.9054 6.6146-3.9688h1.3229v-3.9688h-5.2917c-0.44097 1.9403-1.3229 3.2632-2.6458 3.9688l-2.6458-1.3229c-2.2049-4.9554-4.4097-6.819-6.6146-9.2604-8.5212-1.7439-14.893-4.8106-21.167-7.9375-0.51562-3.8224-0.71236-7.4626 0-10.583l6.6146-5.2917c0.82168-2.1227 0.94053-4.3157 0-6.6146-2.7006-0.0493-4.1664-1.1962-5.2917-2.6458 1.4993-2.1167 3.2632-3.4396 5.2917-3.9688 0.94934 1.0314 2.1416 1.9656 3.9688 2.6458 2.4548-0.44464 4.8535-0.98726 6.6146-2.6458 0.17908-2.5425-0.45098-5.2198-1.3229-7.9375 1.9336-0.95943 3.519-2.0184 6.6146-2.6458 5.9875-1.5651 11.739-0.46171 17.198 3.9688 2.727 2.5254 3.9231 5.2423 5.2917 7.9375 0.94048 2.2049 1.2608 4.4097 1.3229 6.6146l5.2917 3.9688c2.4964 1.45 4.0198 3.3169 5.2917 5.2917 1.0075 1.8772 1.1788 3.5872 1.3229 5.2917-1.9189-0.155-3.1044 0.42339-3.9688 1.3229-0.0293 0.88194 0.4711 1.7639 1.3229 2.6458 0.98602 0.96137 1.8348 1.2367 2.6458 1.3229 1.3786-0.0437 2.146-0.57624 2.6458-1.3229 0.81624-2.8814-0.71672-3.6746-1.3229-5.2917 0.78887-1.7059 1.568-3.4134 1.3229-5.2917v-71.438c2.0057-2.4609 4.1942-4.8487 7.9375-6.6146 1.8712-5.3204 2.8894-10.996 2.6458-17.198-3.0868-0.43236-6.1736-1.3316-9.2604-2.6458-7.596-2.9782-12.571-7.9792-17.198-13.229-6.5624-7.8853-9.3775-15.823-10.583-23.812 1.6245-0.78141 3.0869-1.6168 3.9688-2.6458 1.2275-1.7139 1.2669-3.903 0-6.6146h-3.9688v-6.6146l3.9688-5.2917c0.01-2.1273 0.13307-4.2448-2.6458-6.6146-1.7592-0.55185-3.6145-0.91609-5.7461 0.37418l-32.104-21.868c-1.659 0.88194-1.8694 2.0913-1.8374 2.9732l34.396 25.135v2.6458l-39.688-29.104 1.3229-2.6458c-0.38785-1.1784-0.55997-2.4862-2.6458-2.6458l-1.3229 1.3229-66.146-43.656c-1.6006-3.0868-2.797-6.1736-2.6458-9.2604 0.0533-3.7764 0.82993-7.3358 2.6458-10.583 3.9819-3.5607 8.3655-5.4345 13.229-5.2917l5.2917 2.6458 4.8286-3.3734 9.7234 8.6651 48.948 34.396c-0.0176 1.3229 0.28598 2.6458 1.3229 3.9688 1.2166 1.2912 2.5775 1.4285 3.9688 1.3229l3.7042-2.7781 37.306 27.914-6.0854 0.66146-30.824-23.548c-1.7229 0.73018-2.8184 1.2547-2.7781 3.0427l34.396 26.458h7.9375l1.3229-2.6458 5.2917-3.9688 1.3229-174.62 5.2917-2.6458 4.3296-9.8217 4.9308-10.022c-0.26073-2.8335 0.17996-5.8674-3.4075-7.7504 3.9841-2.1132 6.3148-5.4664 8.325-9.06l0.37418-42.721 3.9688-3.9688-1.3229-2.6458-3.9688-1.3229-1.3229-19.844-3.9688-3.9688v-5.2917l3.9688 1.3229 5.2917-2.6458-3.9688-2.6458h-3.9688v-6.6146h3.9688l6.6146-7.9375 2.6458 5.2917 11.906-2.6458 6.6146-6.6146 15.3 15.1c-4.1133-1.9099-8.1397-3.2986-11.759-2.2451-3.4531 0.49794-5.5261 2.376-7.5101 4.3429-1.3827 2.0541-1.7052 3.7547-2.058 5.4655-0.0877 1.8168 0.30241 3.4745 0.73506 5.1179 0.90117 4.0535 3.0798 5.4169 5.1594 6.9453 3.1461 1.4314 6.7327 1.2106 10.583 0l-1.1906 16.867h-5.2917l1.3229 2.6458v1.3229l3.9688 5.2917-1.3229 54.24-17.198 21.167-1.3229 179.92 6.0854 3.8365-5.424 1.3229c-2.8703 3.5729-3.2138 6.514-3.3073 9.3927 0.79375 1.6757 2.9986 2.9986 6.6146 3.9688l13.229 1.3229 2.6458-3.9688 2.6458 3.9688 5.2917-2.6458h9.2604l2.6458 3.9688 3.9688-2.6458 1.3229 3.9687 31.75 1.3229c0.11521-1.9593 0.33773-3.8543 1.3229-5.2917h1.3229c0.58207 2.2301 0.65184 4.8261 0 7.9375-3.5278 1.8238-7.0556 2.19-10.583 2.6458l1.3229 3.9688h9.2604l5.2917-5.2917-1.3229-2.6458c3.0195-1.1811 6.0665-2.0603 9.2604-1.3229 2.3745 1.2551 3.9697 3.1595 5.2917 5.2917 1.908 1.1336 4.1791 1.42 6.6146 1.3229 1.5227-2.2049 2.1701-4.4097 2.6458-6.6146 3.2807-0.49409 6.4536-1.2039 10.583 0 1.4985 2.4343 1.5715 5.1538 1.3229 7.9375l2.6458 1.3229 58.208 1.3229 2.6458 1.3229c1.729 0.31369 3.3982 1.1666 5.2917 0-0.12918-2.239 0.39514-3.9334 1.3229-5.2917 6.253-0.11499 12.444 0.20566 18.521 1.3229v3.9688c1.5318 0.46424 2.7869 1.4817 3.9688 2.6458 0.1892 1.8738 0.48721 3.5571 0 6.6146-1.0729 1.8821-2.5612 2.1026-3.9688 2.6458v3.9688h-7.9375c-0.29266-1.9112-0.94976-3.7313-2.6458-5.2917-2.2126-0.27572-3.8962-0.88799-7.9375 0l-2.6458 1.3229v2.6458l-3.9688-1.3229h-60.854c-1.4431 0.32076-2.0678 1.46-2.6458 2.6458v7.9375c-3.4396 0.70556-6.9674 0.70555-10.583 0-0.56561-3.8239-1.8163-6.582-3.9688-7.9375h-5.2917c-1.2978 3.2505-3.7366 5.7404-6.6146 7.9375h-9.2604l1.3229-3.9688c-0.66314-2.6436-2.2634-4.0377-3.9688-5.2917-3.6282-1.1442-7.1307-1.011-10.583-0.92604l-1.6536 3.7703 8.2682 1.1245c1.4694 0.97046 2.032 2.485 2.6458 3.9688l-1.3229 5.2917-2.6458-3.9688h-30.427l-1.3229 3.9688-3.9688-2.6458c-0.88194 0.53607-1.7639 0.92114-2.6458 2.6458l-1.3229 2.6458h-9.2604l-3.9688-3.9688c-2.1013 4.1658-5.4007 8.0921-9.2604 11.906-3.8425 3.5406-8.5236 6.4103-13.229 9.2604v37.042h-14.552v17.198c2.139 0.52174 3.2614 1.3823 4.3656 2.249 0.51869 1.1402 0.75707 2.7008 0.92604 4.3656h6.6146l2.6458-2.6458v47.625c-0.88195 0.75321-1.7639 1.0948-2.6458 1.3229-2.7304-0.32016-3.918-0.83316-5.2917-1.3229-4.891 0.0133-6.7102 0.61174-7.9375 1.3229l-1.3229 5.2917-1.3229 9.2604-5.2917 6.6146v14.552c-1.1442 1.9426-3.3076 2.866-5.2917 3.9688h-11.906c-4.1946 2.7426-8.6859 4.7436-13.229 6.6146-4.2274 1.1859-8.4827 2.3251-13.229 2.6458-1.2049 2.4276-1.3355 5.1621-1.3229 7.9375 1.289 0.88194 2.0585 1.7639 2.6458 2.6458-1.3229 1.6484-2.6458 1.9916-3.9688 2.6458h-97.896c-1.7756 5.0566-4.7698 8.5898-7.9375 11.906-2.8978 3.7294-7.2642 6.5776-11.906 9.2604l1.3229 14.552-1.3229 2.6458v35.719l-1.4883 2.3151 1.4883 1.6536v3.9688h-7.9375c0.0937-2.8158-1.1726-6.0094-2.6458-9.2604-1.1527 2.1033-2.1911 4.2495-2.6458 6.6146 0.20738 1.4397 0.42582 2.8739 1.3229 3.9688l7.9375 1.3229v9.2604l-6.6146 5.2917v5.2917l6.6146 6.6146v6.6146l-7.9375 1.3229-2.6458 35.719-1.3229 18.521 2.6458 5.2917-6.6146 7.9375 1.3229 9.2604 6.6146 1.3229 1.3229 9.2604-6.6146 2.6458v3.9688z" stroke-width="1.2621"/>
 </g>
</svg>
