<?xml version="1.0" encoding="UTF-8" standalone="no"?>
<!-- Created with Inkscape (http://www.inkscape.org/) -->

<svg
   xmlns:dc="http://purl.org/dc/elements/1.1/"
   xmlns:cc="http://creativecommons.org/ns#"
   xmlns:rdf="http://www.w3.org/1999/02/22-rdf-syntax-ns#"
   xmlns:svg="http://www.w3.org/2000/svg"
   xmlns="http://www.w3.org/2000/svg"
   xmlns:sodipodi="http://sodipodi.sourceforge.net/DTD/sodipodi-0.dtd"
   xmlns:inkscape="http://www.inkscape.org/namespaces/inkscape"
   width="3200"
   height="3200"
   viewBox="0 0 846.66664 846.66668"
   version="1.1"
   id="svg5595"
   inkscape:export-filename="D:\Download\test.png"
   inkscape:export-xdpi="96"
   inkscape:export-ydpi="96"
   inkscape:version="0.92.4 (5da689c313, 2019-01-14)"
   sodipodi:docname="drawing.svg">
  <defs
     id="defs5589" />
  <sodipodi:namedview
     id="base"
     pagecolor="#ffffff"
     bordercolor="#666666"
     borderopacity="1.0"
     inkscape:pageopacity="0.0"
     inkscape:pageshadow="2"
     inkscape:zoom="0.25"
     inkscape:cx="952.37388"
     inkscape:cy="1623.913"
     inkscape:document-units="px"
     inkscape:current-layer="layer2"
     showgrid="false"
     units="px"
     inkscape:pagecheckerboard="false"
     borderlayer="false"
     inkscape:window-width="1920"
     inkscape:window-height="1027"
     inkscape:window-x="2552"
     inkscape:window-y="-8"
     inkscape:window-maximized="1">
    <inkscape:grid
       type="xygrid"
       id="grid5597" />
  </sodipodi:namedview>
  <metadata
     id="metadata5592">
    <rdf:RDF>
      <cc:Work
         rdf:about="">
        <dc:format>image/svg+xml</dc:format>
        <dc:type
           rdf:resource="http://purl.org/dc/dcmitype/StillImage" />
        <dc:title></dc:title>
      </cc:Work>
    </rdf:RDF>
  </metadata>
  <g
     inkscape:groupmode="layer"
     id="layer2"
     inkscape:label="Layer 1"
     transform="translate(0,634.99999)"
     style="display:inline">
    <path
       style="fill:#777777;fill-opacity:1;stroke:#000000;stroke-width:1.26206255;stroke-linecap:butt;stroke-linejoin:miter;stroke-miterlimit:4;stroke-dasharray:none;stroke-opacity:1"
       d="m 453.76041,202.40625 h 17.19792 l 2.64583,2.64583 h 30.42708 l 2.64584,-2.64583 h 30.42708 l 2.64583,2.64583 h 31.75 l 2.64584,-2.64583 h 29.10416 l 2.64584,2.64583 h 30.42708 l 2.64583,-2.64583 h 30.42708 l 2.64584,2.64583 h 31.75 l 2.64583,-2.64583 h 29.10417 l 2.64583,2.64583 h 29.10417 l 2.64583,-2.64583 h 31.75 l 2.64583,2.64583 h 34.39584 l 1.32291,-1.32291 v -34.39584 l -2.64583,-2.64583 v -30.42708 l 2.64583,-2.64584 v -29.10416 l -2.64583,-2.64584 V 71.437504 l 2.64583,-2.645833 v -31.75 l -2.64583,-2.645833 V 5.2916717 l 2.64583,-2.6458333 V -27.781245 l -2.64583,-2.645833 v -30.427084 l 2.64583,-2.645833 v -34.395833 l -2.64583,-2.645832 v -27.78125 l 2.64583,-2.64584 v -31.75 l -2.64583,-2.64583 v -19.84375 h 6.61458 V 206.375 l -2.64583,2.64583 H 453.76041 Z"
       id="path7592"
       inkscape:connector-curvature="0"
       sodipodi:nodetypes="ccccccccccccccccccccccccccccccccccccccccccccccccccccc" />
    <path
       style="display:inline;fill:#777777;fill-opacity:1;stroke:#000000;stroke-width:1.26206255;stroke-linecap:butt;stroke-linejoin:miter;stroke-miterlimit:4;stroke-dasharray:none;stroke-opacity:1"
       d="m 9.2604138,-181.23957 v 17.19791 l -2.6458303,2.64583 v 30.42709 l 2.6458303,2.64583 v 30.427087 l -2.6458303,2.64583 v 31.749994 l 2.6458303,2.64584 v 29.10416 l -2.6458303,2.64584 V 1.3229216 l 2.6458303,2.64583 V 34.395831 l -2.6458303,2.64584 v 31.75 l 2.6458303,2.64583 v 29.104169 l -2.6458303,2.64583 v 29.10417 l 2.6458303,2.64583 v 31.75 l -2.6458303,2.64584 v 34.39583 l 1.32291,1.32291 H 42.333325 l 2.64584,-2.64583 h 30.427079 l 2.64583,2.64583 h 29.104166 l 2.64583,-2.64583 h 30.42709 l 2.64584,2.64583 h 31.75 l 2.64583,-2.64583 H 206.375 l 2.64583,2.64583 h 30.42709 l 2.64583,-2.64583 h 30.42708 l 2.64584,2.64583 h 34.39583 l 2.64583,-2.64583 h 27.78125 l 2.64584,2.64583 h 31.75 l 2.64583,-2.64583 H 396.875 v 6.61458 H 5.2916635 l -2.64583,-2.64583 v -387.61457 z"
       id="path7592-1"
       inkscape:connector-curvature="0"
       sodipodi:nodetypes="ccccccccccccccccccccccccccccccccccccccccccccccccccccc" />
    <path
       transform="translate(0,-85.333332)"
       style="display:inline;fill:#777777;fill-opacity:1;stroke:#000000;stroke-width:1.26206267;stroke-linecap:butt;stroke-linejoin:miter;stroke-miterlimit:4;stroke-dasharray:none;stroke-opacity:1"
       d="m 844.02083,-163.37501 h -6.61458 v -30.42709 l 2.64583,-2.64583 v -29.10417 l -2.64583,-2.64583 v -30.42708 l 2.64583,-2.64584 v -33.07291 l -2.64583,-2.64584 v -30.42708 l 2.64583,-2.64583 v -29.10417 l -2.64583,-2.64583 v -30.42709 l 2.64583,-2.64583 v -33.07291 l -2.64583,-2.64584 v -13.22916 h 6.61458 z"
       id="path7641-6"
       inkscape:connector-curvature="0"
       sodipodi:nodetypes="ccccccccccccccccccccc" />
    <path
       transform="translate(0,-85.333332)"
       style="display:inline;fill:#777777;fill-opacity:1;stroke:#000000;stroke-width:1.26206255;stroke-linecap:butt;stroke-linejoin:miter;stroke-miterlimit:4;stroke-dasharray:none;stroke-opacity:1"
       d="m 2.6458333,-164.69792 h 6.6145833 v -30.42709 l -2.6458334,-2.64583 v -29.10417 l 2.6458334,-2.64583 v -30.42708 l -2.6458333,-2.64584 -10e-8,-33.07291 2.6458334,-2.64584 v -30.42708 l -2.6458333,-2.64583 -10e-8,-29.10417 2.6458334,-2.64583 v -30.42709 l -2.6458334,-2.64583 v -33.07291 l 2.6458334,-2.64584 v -13.22916 H 2.6458333 Z"
       id="path7641"
       inkscape:connector-curvature="0"
       sodipodi:nodetypes="ccccccccccccccccccccc" />
    <path
       transform="translate(0,-634.99999)"
       style="display:inline;fill:#777777;fill-opacity:1;stroke:#000000;stroke-width:1.26206255;stroke-linecap:butt;stroke-linejoin:miter;stroke-miterlimit:4;stroke-dasharray:none;stroke-opacity:1"
       d="M 420.68749,844.02082 419.1,841.04426 c -1.04438,-0.7717 -2.3075,-1.5434 -3.70417,-2.3151 v -3.96875 c 1.76389,-0.1557 3.52777,-0.15211 5.29166,-1.32292 1.30747,-0.8974 2.54955,-1.86017 2.64584,-3.96875 -1.21736,-2.3785 -2.57664,-3.33777 -3.96875,-3.96875 -1.08819,-0.6757 -2.53825,-0.98953 -3.96875,-1.32292 l -1.32292,-7.9375 h 2.64583 v -27.78125 l -1.32291,-2.64583 v -33.07292 l 2.64583,-5.29166 -1.32292,-6.61459 -7.9375,-1.32291 5.29167,-6.61459 -2.64583,-3.96875 -6.61459,-3.96875 v -9.26041 c 2.27288,-0.27092 4.51625,-0.61563 6.61459,-1.32292 1.69122,-1.10194 3.15466,-2.34054 3.96875,-3.96875 0.87232,-2.31872 0.51924,-5.09695 0,-7.9375 l -2.64584,5.29167 c -1.71893,0.1581 -2.85438,0.73298 -3.96875,1.32291 -0.52104,0.79202 -0.5187,2.18218 -0.42995,3.67109 -1.59662,-0.11634 -3.18044,-0.34787 -4.86171,0.29766 -0.0545,1.21388 -0.0324,2.58093 0,3.96875 h -2.64584 v -64.82291 c -3.7977,-2.77832 -7.63388,-5.51267 -10.58333,-9.26042 -3.26509,-3.73653 -5.65574,-7.80097 -7.9375,-11.90625 l -103.37459,-0.57456 c -11.95795,-3.36341 -23.18552,-8.3399 -34.39583,-17.19792 -6.29728,-5.03955 -11.52689,-10.63378 -14.36499,-16.62335 v -6.61458 l 2.64583,-2.64584 v -5.29166 l -1.32292,-2.64584 1.32292,-2.64583 c 1.05031,-1.76389 1.51973,-3.52778 1.32292,-5.29167 l -1.80394,-15.20689 1.80394,-5.95977 c -0.16102,-2.70576 -1.1704,-5.14641 -5.29167,-6.61459 -3.74331,-0.68588 -5.91119,0.87886 -7.9375,2.64584 l -1.32292,6.61458 -5.29166,1.32292 -1.32292,-93.92709 c -2.03097,-0.92229 -3.95795,-2.00057 -5.29167,-3.96875 -1.02469,-2.2718 -0.85157,-4.46736 0,-6.61458 l 1.32292,-2.64583 c -2.8536,-3.86228 -6.57893,-6.34827 -11.90625,-6.61459 -2.43573,0.987 -5.00537,1.90704 -7.9375,2.64584 -4.31987,0.75545 -8.66371,1.42701 -13.22917,1.32291 l -1.32291,-6.61458 -3.96875,1.32292 -31.75,-1.32292 -3.96875,5.29167 c -0.63015,-2.20486 -1.29208,-4.40973 -1.32292,-6.61459 -3e-4,-1.47001 0.53168,-2.76259 1.32292,-3.96875 l 9.26041,-1.32291 c 1.00129,-1.99044 0.44874,-2.94499 0,-3.96875 h -10.58333 l -3.96875,5.29166 v 5.29167 h -7.9375 c -1.21903,-2.98113 -2.48554,-5.93304 -5.29166,-7.9375 -2.43634,-1.15739 -4.52186,-0.56066 -6.61459,0 -3.396,2.19916 -5.1963,4.9967 -6.61458,7.9375 h -6.614585 l -2.645833,-9.26042 c -0.81867,-0.69309 -1.911985,-1.24886 -3.96875,-1.32291 H 34.395833 c -1.763889,1.67908 -3.527778,2.1891 -5.291667,2.64583 H 6.6145832 v -3.96875 c -2.152314,-0.99923 -4.1828115,-2.09997 -5.2916666,-3.96875 v -5.29167 c 1.4157272,-1.29974 3.0018103,-2.39505 5.2916666,-2.64583 l 1.3229167,-3.96875 c 1.9185876,-0.82267 4.1676021,-1.20477 6.6145831,-1.32292 -1.632364,3.72896 -0.550607,5.73695 0,7.9375 1.200505,2.16217 3.215989,3.65275 6.614583,3.96875 2.506944,-0.13456 4.889077,-0.35879 6.614584,-2.64583 1.257004,-2.23782 1.653461,-4.9059 1.322916,-7.9375 1.373198,0.18957 2.683351,0.69436 3.96875,1.32292 h 58.208333 l 3.96875,-1.32292 v -7.9375 h 9.260421 l 3.96875,7.9375 h 9.26041 l 2.64584,-7.9375 h 9.26041 v 5.29167 c 1.28975,3.30483 3.31929,4.20536 5.29167,5.29166 h 9.26041 c 0.62924,-0.74746 1.29272,-1.47047 1.32292,-2.64583 -0.0306,-1.10995 -0.4988,-1.97675 -1.32292,-2.64583 l -7.9375,-1.32292 -1.32291,-9.26041 h 1.32291 l 1.32292,3.96874 30.42708,1.32292 2.64584,-2.64583 2.64583,2.64583 2.64583,-1.32292 v -5.02707 l 13.09688,0.13228 c 3.4181,2.04589 5.04219,4.80938 6.74687,7.54063 h 7.9375 l 2.64584,2.64583 13.22916,-9.26041 -1.32291,-7.9375 -5.29167,-6.61459 v -3.96875 -182.5625 l -18.52083,-17.19791 1.32291,-10.58334 -1.32291,-1.32291 -0.59531,-47.02968 4.63021,-0.26459 c 1.05624,-1.92821 0.58738,-3.09387 -0.46302,-3.96875 l -4.82865,0.13229 -0.1323,-15.47812 7.40834,-0.264589 c 0.94017,-1.697743 2.25188,-3.990798 2.3151,-5.688542 1.14937,-0.177 2.25557,-0.0087 3.57188,-1.521353 1.03163,-5.447868 1.17994,-8.274981 0.32408,-12.069835 -0.61355,-3.651004 -1.94354,-5.662181 -4.42512,-7.443186 l -7.9375,1.322916 1.32291,-3.96875 6.74688,-6.945312 5.29166,-1.322916 2.64584,1.322916 h 5.29166 l 1.32292,-2.645833 10.58333,6.614583 7.9375,9.260417 v 2.645833 c -1.32292,-0.995818 -2.64583,-1.559259 -3.96875,-1.322917 -1.5875,0.529165 -2.46944,1.411114 -2.64583,2.645834 -0.7563,2.199259 0.16527,3.788388 1.32292,5.291666 2.30458,1.227074 3.01322,0.45924 3.96875,0 l 1.32291,5.291667 -3.96875,6.614583 v 17.197918 h -3.96875 c -1.43648,0.63307 -1.22787,1.6774 -1.32291,2.64583 0.84135,1.92488 2.4482,2.89288 3.96875,3.96875 v 42.33333 l 18.52083,19.84375 1.32292,189.17709 6.44079,11.06435 h 9.26041 L 269.20689,381 300.30208,358.51041 298.11067,355.67749 264.58333,381 l -5.67914,-0.65481 38.75206,-29.77228 7.9375,1.32292 1.32291,-3.96875 50.27084,-35.71875 c 2.02313,-3.42646 4.02287,-6.86568 7.9375,-9.26042 4.86343,-1.71296 10.12978,-1.81422 15.875,0 5.04756,3.39113 9.81053,7.1673 11.90625,14.55209 0.18412,4.64715 -0.89386,8.49116 -2.64584,11.90625 -2.95326,4.00603 -6.76948,6.63132 -10.58333,9.26041 l -11.90625,3.96875 -84.66667,64.82292 -3.96875,-1.32292 5.5723,-4.82395 9.80839,-7.64357 20.33806,-13.99081 -2.07126,-1.89748 -38.47143,23.81249 -0.46772,5.86624 c -0.48087,2.47548 1.20596,5.22193 2.64583,7.9375 l -5.29167,3.96875 3.96875,6.61458 -1.32291,10.58333 -5.29167,7.9375 -9.26042,-6.61458 c -4.3737,1.66249 -6.3776,4.83303 -8.04433,8.21813 -5.21355,1.16386 -6.19418,4.58526 -7.83067,7.65687 l 2.64584,6.61458 4.83724,0.37418 -0.86849,4.91749 v 88.63542 l 1.32291,3.96875 -2.64583,5.29166 c -0.31555,2.20486 0.40497,4.40973 1.32292,6.61459 l 5.29166,1.32291 -1.32291,-7.9375 9.26041,-9.26041 3.96875,-11.90625 7.9375,-6.61459 c 7.77283,-3.93069 13.206,-2.75589 18.52084,-1.32291 4.24311,1.84109 7.75128,4.50898 10.58333,7.9375 2.20542,2.51976 3.49166,5.43811 4.53002,8.12459 1.30823,4.30131 0.84627,8.56665 0.76165,13.04207 -0.52353,6.22884 -3.72786,10.15985 -7.9375,13.22917 -3.36776,2.12304 -6.86342,4.26798 -10.58334,4.63021 -2.35163,2.60881 -7.0129,5.41753 -10.77512,9.78958 -3.03106,-2.9939 -3.9591,-3.57412 -5.43061,-3.96875 -1.4839,0.52077 -1.6802,1.74796 -2.3151,2.77813 -0.0459,2.88383 2.17018,3.91695 3.96875,5.29166 H 281.78125 285.75 381 l 2.64583,2.64584 c 5.73264,-3.41202 11.46527,-6.92548 17.19791,-7.9375 v -13.22917 c 5.60159,-2.10711 11.19811,-4.21725 18.52084,-5.29167 5.77835,-0.7186 9.25883,1.35329 13.66341,2.35191 0.77714,2.236 2.00983,4.54792 3.5345,6.90851 2.14202,1.93183 4.67533,3.73322 7.9375,5.29167 l 5.29167,-2.64584 c 1.82361,0.64017 3.75617,0.67172 5.80616,1.99103 2.25668,0.65948 3.37872,2.13482 4.77717,3.30064 1.94755,1.73639 3.00306,4.1418 3.96875,6.61458 l 97.89584,-1.32291 c 1.66456,1.37858 3.45135,2.14602 5.29166,2.64583 2.61848,-0.84036 5.04436,-1.90543 6.61459,-3.96875 h 1.32291 v -3.96875 h -5.29166 c -0.44097,1.94028 -1.32292,3.26319 -2.64584,3.96875 l -2.64583,-1.32292 c -2.20486,-4.95542 -4.40972,-6.81902 -6.61458,-9.26041 -8.52115,-1.74393 -14.89277,-4.81065 -21.16667,-7.9375 -0.51562,-3.82242 -0.71236,-7.46262 0,-10.58334 l 6.61458,-5.29166 c 0.82168,-2.12269 0.94053,-4.31567 0,-6.61459 -2.70061,-0.0493 -4.1664,-1.19622 -5.29166,-2.64583 1.4993,-2.11667 3.26319,-3.43958 5.29166,-3.96875 0.94934,1.03137 2.14161,1.96557 3.96875,2.64583 2.45475,-0.44464 4.85351,-0.98726 6.61459,-2.64583 0.17908,-2.54249 -0.45098,-5.21984 -1.32292,-7.9375 1.93365,-0.95943 3.51895,-2.01839 6.61458,-2.64583 5.98747,-1.5651 11.73948,-0.46171 17.19792,3.96875 2.72703,2.52544 3.92306,5.24226 5.29167,7.9375 0.94048,2.20486 1.26085,4.40972 1.32291,6.61458 l 5.29167,3.96875 c 2.49637,1.44997 4.01983,3.3169 5.29167,5.29167 1.00749,1.87719 1.17882,3.58715 1.32291,5.29166 -1.91889,-0.155 -3.10439,0.42339 -3.96875,1.32292 -0.0293,0.88194 0.4711,1.76389 1.32292,2.64583 0.98602,0.96137 1.83485,1.23674 2.64583,1.32292 1.37859,-0.0437 2.14603,-0.57624 2.64584,-1.32292 0.81624,-2.88141 -0.71672,-3.67464 -1.32292,-5.29166 0.78887,-1.70591 1.56798,-3.41344 1.32292,-5.29167 v -71.4375 c 2.0057,-2.46092 4.19423,-4.84869 7.9375,-6.61458 1.87123,-5.32044 2.88944,-10.9963 2.64583,-17.19792 -3.08681,-0.43236 -6.17361,-1.33159 -9.26042,-2.64583 -7.59601,-2.97824 -12.57053,-7.97916 -17.19791,-13.22917 -6.56242,-7.88528 -9.37749,-15.82348 -10.58334,-23.8125 1.62452,-0.78141 3.08694,-1.61685 3.96875,-2.64583 1.22746,-1.71388 1.26693,-3.90296 0,-6.61459 h -3.96875 v -6.61458 l 3.96875,-5.29167 c 0.01,-2.12734 0.13307,-4.24477 -2.64583,-6.61458 -1.7592,-0.55185 -3.6145,-0.91609 -5.74609,0.37418 l -32.104,-21.86825 c -1.659,0.88194 -1.86944,2.0913 -1.83741,2.97324 l 34.39583,25.13541 v 2.64584 l -39.6875,-29.10417 1.32292,-2.64583 c -0.38785,-1.1784 -0.55997,-2.48624 -2.64583,-2.64583 l -1.32292,1.32291 -66.14583,-43.65625 c -1.60063,-3.0868 -2.79697,-6.17361 -2.64584,-9.26041 0.0533,-3.77637 0.82993,-7.33575 2.64584,-10.58334 3.98192,-3.56067 8.36546,-5.43449 13.22916,-5.29166 l 5.29167,2.64583 4.82865,-3.37344 9.72343,8.66511 48.94792,34.39583 c -0.0176,1.32292 0.28598,2.64583 1.32292,3.96875 1.21664,1.2912 2.57751,1.42852 3.96875,1.32292 l 3.70416,-2.77813 37.30625,27.91354 -6.08541,0.66146 -30.82396,-23.54792 c -1.72286,0.73018 -2.81839,1.25467 -2.77813,3.04271 l 34.39584,26.45834 h 7.9375 l 1.32291,-2.64584 5.29167,-3.96875 1.32292,-174.625 5.29166,-2.64583 4.32964,-9.82169 4.93078,-10.02206 c -0.26073,-2.8335 0.17996,-5.8674 -3.40748,-7.75041 3.9841,-2.11318 6.31477,-5.46643 8.32497,-9.06003 l 0.37418,-42.72081 3.96875,-3.96875 -1.32292,-2.64583 -3.96875,-1.32292 -1.32292,-19.843748 -3.96875,-3.96875 v -5.291666 l 3.96875,1.322916 5.29167,-2.645833 -3.96875,-2.645833 h -3.96875 v -6.614584 h 3.96875 l 6.61458,-7.9375 2.64584,5.291667 11.90625,-2.645833 6.61458,-6.614583 15.30043,15.100053 c -4.11327,-1.909914 -8.13967,-3.29859 -11.75904,-2.245064 -3.45309,0.497939 -5.52606,2.375983 -7.51014,4.342927 -1.38274,2.054068 -1.70518,3.754705 -2.05798,5.465459 -0.0877,1.81685 0.30241,3.474459 0.73506,5.117874 0.90117,4.053548 3.07981,5.416899 5.15938,6.945312 3.14608,1.431363 6.73272,1.210606 10.58333,0 l -1.19062,16.867186 h -5.29167 l 1.32292,2.64584 v 1.32291 l 3.96875,5.29167 -1.32292,54.23958 -17.19792,21.16667 -1.32291,179.91666 6.08541,3.83646 -5.42396,1.32292 c -2.87026,3.57286 -3.21383,6.51405 -3.30729,9.39271 0.79375,1.67569 2.99862,2.99861 6.61459,3.96875 l 13.22916,1.32291 2.64584,-3.96875 2.64583,3.96875 5.29167,-2.64583 h 9.26041 l 2.64583,3.96875 3.96875,-2.64583 1.32292,3.96874 31.75,1.32292 c 0.11521,-1.95934 0.33773,-3.8543 1.32292,-5.29166 h 1.32291 c 0.58207,2.23007 0.65184,4.82606 0,7.93749 -3.52778,1.82384 -7.05555,2.19001 -10.58333,2.64584 l 1.32292,3.96875 h 9.26041 l 5.29167,-5.29167 -1.32292,-2.64583 c 3.01952,-1.18111 6.06649,-2.06034 9.26042,-1.32292 2.37448,1.25506 3.96974,3.15948 5.29167,5.29167 1.90804,1.13356 4.17914,1.41996 6.61458,1.32291 1.5227,-2.20486 2.17006,-4.40972 2.64583,-6.61458 3.28073,-0.49409 6.4536,-1.20392 10.58334,0 1.49851,2.43433 1.57152,5.15375 1.32291,7.9375 l 2.64584,1.32292 58.20833,1.32291 2.64583,1.32292 c 1.72904,0.31369 3.39816,1.16657 5.29167,0 -0.12918,-2.23902 0.39514,-3.93345 1.32292,-5.29167 6.25303,-0.11499 12.44383,0.20566 18.52083,1.32292 v 3.96875 c 1.53177,0.46424 2.78693,1.48169 3.96875,2.64583 0.1892,1.87376 0.48721,3.55711 0,6.61459 -1.07289,1.88206 -2.56117,2.10256 -3.96875,2.64583 v 3.96875 h -7.9375 c -0.29266,-1.91121 -0.94976,-3.73131 -2.64583,-5.29167 -2.21255,-0.27572 -3.89625,-0.88799 -7.9375,0 l -2.64584,1.32292 v 2.64583 l -3.96875,-1.32291 h -60.85416 c -1.44313,0.32076 -2.06783,1.45995 -2.64584,2.64583 v 7.9375 c -3.43958,0.70556 -6.96736,0.70555 -10.58333,0 -0.56561,-3.82386 -1.81632,-6.58202 -3.96875,-7.9375 h -5.29167 c -1.29782,3.25053 -3.73665,5.74038 -6.61458,7.9375 h -9.26042 l 1.32292,-3.96875 c -0.66314,-2.64359 -2.26342,-4.03766 -3.96875,-5.29167 -3.62825,-1.14425 -7.13069,-1.01105 -10.58333,-0.92604 l -1.65365,3.77032 8.26823,1.12447 c 1.46938,0.97046 2.03198,2.48497 2.64583,3.96875 l -1.32291,5.29167 -2.64584,-3.96875 h -30.42708 l -1.32292,3.96875 -3.96875,-2.64583 c -0.88194,0.53607 -1.76389,0.92114 -2.64583,2.64583 l -1.32292,2.64583 h -9.26041 l -3.96875,-3.96875 c -2.10129,4.16585 -5.40069,8.09209 -9.26042,11.90625 -3.84246,3.54061 -8.52355,6.41032 -13.22916,9.26042 v 37.04167 h -14.55209 v 17.19791 c 2.13895,0.52174 3.26141,1.38231 4.36563,2.24897 0.51869,1.14019 0.75707,2.70084 0.92604,4.36562 h 6.61458 l 2.64584,-2.64584 v 47.625 c -0.88195,0.75321 -1.76389,1.09482 -2.64584,1.32292 -2.7304,-0.32016 -3.91804,-0.83316 -5.29166,-1.32292 -4.89095,0.0133 -6.71023,0.61174 -7.9375,1.32292 l -1.32292,5.29167 -1.32292,9.26041 -5.29166,6.61459 v 14.55208 c -1.14424,1.94256 -3.3076,2.86602 -5.29167,3.96875 h -11.90625 c -4.19463,2.74258 -8.68591,4.74357 -13.22917,6.61458 -4.22735,1.18589 -8.48273,2.32508 -13.22916,2.64584 -1.20488,2.42757 -1.33549,5.16208 -1.32292,7.9375 1.28901,0.88194 2.05853,1.76389 2.64583,2.64583 -1.32292,1.64835 -2.64583,1.99165 -3.96875,2.64583 h -97.89583 c -1.77558,5.05657 -4.76983,8.58979 -7.9375,11.90625 -2.89781,3.72937 -7.26425,6.57756 -11.90625,9.26042 l 1.32292,14.55208 -1.32292,2.64583 v 35.71875 l -1.48828,2.31511 1.48828,1.65364 v 3.96875 h -7.9375 c 0.0937,-2.81579 -1.17258,-6.00935 -2.64583,-9.26041 -1.15273,2.10332 -2.19106,4.24953 -2.64584,6.61458 0.20738,1.43971 0.42582,2.8739 1.32292,3.96875 l 7.9375,1.32292 v 9.26041 l -6.61458,5.29167 v 5.29167 l 6.61458,6.61458 v 6.61458 l -7.9375,1.32292 -2.64583,35.71875 -1.32292,18.52083 2.64583,5.29167 -6.61458,7.9375 1.32292,9.26042 6.61458,1.32291 1.32292,9.26042 -6.61459,2.64583 v 3.96875 z"
       id="path7663"
       inkscape:connector-curvature="0"
       sodipodi:nodetypes="cccccccccccccccccccccccccccccccccccccccccccccccccccccccccccccccccccccccccccccccccccccccccccccccccccccccccccccccccccccccccccccccccccccccccccccccccccccccccccccccccccccccccccccccccccccccccccccccccccccccccccccccccccccccccccccccccccccccccccccccccccccccccccccccccccccccccccccccccccccccccccccccccccccccccccccccccccccccccccccccccccccccccccccccccccccccccccccccccccccccccccccccccccccccccccccccccccccccccccccccccccccccccccccccccccccccccccccccccccccccccccccccccccc" />
  </g>
</svg>
