<?xml version="1.0" encoding="UTF-8" standalone="no"?>
<svg
   xmlns:dc="http://purl.org/dc/elements/1.1/"
   xmlns:cc="http://creativecommons.org/ns#"
   xmlns:rdf="http://www.w3.org/1999/02/22-rdf-syntax-ns#"
   xmlns:svg="http://www.w3.org/2000/svg"
   xmlns="http://www.w3.org/2000/svg"
   viewBox="0 0 400 400"
   height="400"
   width="400"
   id="svg2"
   version="1.1">
  <metadata
     id="metadata8">
    <rdf:RDF>
      <cc:Work
         rdf:about="">
        <dc:format>image/svg+xml</dc:format>
        <dc:type
           rdf:resource="http://purl.org/dc/dcmitype/StillImage" />
        <dc:title></dc:title>
      </cc:Work>
    </rdf:RDF>
  </metadata>
  <defs
     id="defs6" />
  <path
     id="path4487"
     d="m 175.48113,392.57365 h 50.04674 l 11.22123,-11.67277 v -35.71866 h 35.2347 l 6.62055,6.88695 v 10.6222 l 13.74601,14.29913 h 15.0926 l 15.84997,-16.48776 v -19.98965 h 35.31886 l 9.87469,-10.27203 V 197.75525 l -5.20533,-5.41479 V 13.342171 L 357.59417,7.4263517 H 44.044059 L 38.344098,13.35567 V 190.9659 l -6.830251,7.10508 v 130.76936 l 11.164513,11.61375 h 35.851246 v 20.37685 l 14.892419,15.49167 h 16.161965 l 15.06344,-15.6696 v -11.21244 l 4.68758,-4.87621 h 35.94998 v 37.56163 z"
     style="fill:#777777;fill-opacity:1;fill-rule:evenodd;stroke:#000000;stroke-width:4.85269451;stroke-linecap:butt;stroke-linejoin:miter;stroke-miterlimit:4;stroke-dasharray:none;stroke-opacity:1" />
  <path
     id="path4489"
     d="m 90.07671,198.03868 h 16.13433 l 31.20932,32.42297 h 16.21581 l 10.22656,-10.62425 v -21.96803 l 15.66578,-16.27499 h 51.75599 l 14.73382,15.30679 v 21.77168 l 10.26471,10.66388 h 18.33145 l 30.36976,-31.55076 h 15.95646 l 25.21069,-26.19108 H 356.4344 V 31.429755 l -7.14483,-7.422679 H 59.808416 l -6.107684,6.345201 V 170.54515 h 11.178215 z"
     style="fill:#000000;fill-opacity:0.5;fill-rule:evenodd;stroke:#000000;stroke-width:4.98035765;stroke-linecap:butt;stroke-linejoin:miter;stroke-miterlimit:4;stroke-dasharray:none;stroke-opacity:1" />
  <rect
     y="-3.458349"
     x="-2.5567703"
     height="12.410824"
     width="7.670311"
     id="rect4483"
     style="fill:#777777;fill-opacity:0;stroke-width:4.37300014;stroke-miterlimit:4;stroke-dasharray:none" />
  <rect
     y="390.79562"
     x="392.71991"
     height="13.80656"
     width="13.80656"
     id="rect4485"
     style="fill:#777777;fill-opacity:0;stroke-width:4.37300014;stroke-miterlimit:4;stroke-dasharray:none" />
</svg>
