<?xml version="1.0" encoding="UTF-8" standalone="no"?>
<svg
   xmlns:dc="http://purl.org/dc/elements/1.1/"
   xmlns:cc="http://creativecommons.org/ns#"
   xmlns:rdf="http://www.w3.org/1999/02/22-rdf-syntax-ns#"
   xmlns:svg="http://www.w3.org/2000/svg"
   xmlns="http://www.w3.org/2000/svg"
   viewBox="0 0 400 400"
   height="400"
   width="400"
   id="svg2"
   version="1.1">
  <metadata
     id="metadata8">
    <rdf:RDF>
      <cc:Work
         rdf:about="">
        <dc:format>image/svg+xml</dc:format>
        <dc:type
           rdf:resource="http://purl.org/dc/dcmitype/StillImage" />
        <dc:title></dc:title>
      </cc:Work>
    </rdf:RDF>
  </metadata>
  <defs
     id="defs6" />
  <path
     id="path4487"
     d="m 113.28097,366.65644 h 68.40241 v 20.93848 l 5.31075,5.13197 h 26.3413 l 4.67346,-4.51616 v -21.14377 h 69.88941 l 11.365,-10.98245 V 330.7325 l 10.7808,-10.41792 v -10.72583 h 47.67125 V 123.81088 H 315.51419 L 298.51981,107.38852 V 81.728596 l -7.98595,-4.455485 H 106.27078 l -5.17314,4.999009 v 26.96392 L 86.062927,123.76466 H 42.723745 v 65.38878 l 10.36453,10.01565 H 75.61986 l 5.632903,5.4433 v 32.44202 h -38.97965 v 62.41642 l 15.321481,14.80575 h 28.540012 l 16.222744,15.6767 V 356.952 Z"
     style="fill:#777777;fill-opacity:1;fill-rule:evenodd;stroke:#000000;stroke-width:4.54622507;stroke-linecap:butt;stroke-linejoin:miter;stroke-miterlimit:4;stroke-dasharray:none;stroke-opacity:1" />
  <path
     id="path4489"
     d="m 180.02855,184.79881 h 37.86783 l 15.35585,14.9509 v 36.72408 l -15.4304,15.0235 h -38.09145 l -13.67864,-13.31792 v -39.44573 z"
     style="fill:#000000;fill-opacity:0.5;fill-rule:evenodd;stroke:#000000;stroke-width:4.52917433;stroke-linecap:butt;stroke-linejoin:miter;stroke-miterlimit:4;stroke-dasharray:none;stroke-opacity:1" />
  <path
     id="path4491"
     d="m 313.31138,232.11915 v -25.83749 l 5.36712,-5.22555 h 21.46838 l 5.51617,5.37071 v 25.98265 l -4.99439,4.86268 H 318.3803 Z"
     style="fill:#000000;fill-opacity:0.5;fill-rule:evenodd;stroke:#000000;stroke-width:4.52917433;stroke-linecap:butt;stroke-linejoin:miter;stroke-miterlimit:4;stroke-dasharray:none;stroke-opacity:1" />
  <rect
     y="-1.8078951"
     x="-1.2655367"
     height="8.2259884"
     width="8.2259884"
     id="rect4484"
     style="fill:#777777;fill-opacity:0;stroke-width:4.37300014;stroke-miterlimit:4;stroke-dasharray:none" />
  <rect
     y="395.74936"
     x="396.20349"
     height="6.4878044"
     width="6.4878044"
     id="rect4486"
     style="fill:#777777;fill-opacity:0;stroke-width:4.37300014;stroke-miterlimit:4;stroke-dasharray:none" />
</svg>
