<?xml version="1.0" encoding="UTF-8"?>
<!-- Created with Inkscape (http://www.inkscape.org/) -->
<svg width="400" height="400" version="1.1" viewBox="0 0 400 400" xmlns="http://www.w3.org/2000/svg">
 <path d="m276.91 285.41 44.864-0.50251-0.057-12.545-45.222-0.0278-2.6111-87.839-8.0545-34.376-8.0133-0.0546-10.15 19.078-24.546 0.17048-11.901-12.557-12.46-0.0278-26.162 20.26-31.382 3e-3 -14.761-6.1399-9.1846-15.148-10.128 0.0478-8.6713 9.1908-30.733 12.041 2e-3 33.482 4.3647 35.832 11.428 11.588 32.909 0.34328 17.028 18.228-0.24831 31.015 18.649 26.51 1.0038 38.254 20.416 14.704 50.494-0.0358 19.09-23.346-0.9256-36.382-11.007-3.4855-9.2307-7.0212-6.9354-10.178-3.0262-14.124 0.51427-14.849 4.8735-7.9873 7.6099-6.4782 10.061-2.5306 9.0133 2.5985 8.2 6.9696 4.5895 11.082 1.1185 13.653-3.249 14.543-3.6651 11.188 6.4623 5.2968 11.257-2.9006 8.5014-11.511z" fill="#777" stroke="#000" stroke-width="4.77"/>
 <ellipse cx="166.19" cy="216.34" rx="2.8931" ry="5.4647" fill="none"/>
</svg>
