<?xml version="1.0" encoding="UTF-8"?>
<!-- Created with Inkscape (http://www.inkscape.org/) -->
<svg width="800" height="800" version="1.1" viewBox="0 0 800 800" xmlns="http://www.w3.org/2000/svg">
 <path d="m466.65 32.163 10.797 4.887 135.36 0.2273 14.206 13.297 144.79 1.3638 2.6617 2.7268 1.5434 91.377 0.79555 38.641 5.8192 2.8134 3.8412 4.3466v22.73l-4.1452 7.179-6.0835 3.9589 0.061 20.93-1.8794 1.914-28.867 1.4775-20.912 1.3638-10.57 4.887-5.9108 9.0906-2.2722 11.935 4.4236 12.855 12.624 4.7607 13.752 0.34095 15.457 0.68191 7.0464 2.7276v194.68l-3.0686 7.0464-6.4781 2.614-16.479 1.2502-14.32 1.0228-11.138 4.3188-3.4778 8.1351-0.49995 11.299 6.2508 11.592 11.024 8.4102 23.753 2.1594 25.799 0.4546 1.2502 2.273 1.4775 17.957 4.922 8.3619 8.1479 6.4128-0.2273 18.525-8.5239 8.0692-4.5867 11.575 0.0406 17.065-2.7512 9.0984-0.88564 96.825-1.9321 2.273-144.91 0.68189-12.075 3.9959-11.11 7.3692-127.86 0.34096-33.754 4.2051-15.229 7.7283-9.774 8.6375-28.413-0.2273-7.7283-7.501-2.9549-10.229-6.2508-6.4781-1.4775-11.252-6.1372-5.228-4.0916-0.79716-3.864 1.82-1.8184 18.525-1.6021 1.751-143.19 0.86299-9.9207-11.434-13.492-6.4092-149.45-0.45461-2.273-2.0457-1.7048-128.43-2.5003-4.7734-4.5548-1.7314-4.8783-3.6102-0.11365-26.026 3.9826-6.135 5.4504-3.0707-0.11365-16.252 6.2781-5.5739 7.5874-3.1772 36.596-1.2502 10.342-4.2051 5.917-4.7863 3.516-6.6925-0.45461-16.366-2.2744-6.511-5.7949-4.9678-39.323-0.6819-2.5003-3.2959-0.56826-201.84 3.7505-3.1822 39.21-0.6819 7.8419-4.5461 3.6666-7.7066 1.3341-9.4548-1.5039-8.5516-3.0422-7.8142-7.3873-5.4553-21.026-2.9549-34.55-0.68191-1.8184-1.9321-1.4775-21.026-6.2673-4.642-5.0979-5.9276-0.11365-21.253 5.0055-6.5866 7.7234-5.2331 1.0229-8.5239 1.3638-119.11 1.4775-1.8184 145.47-0.68191 11.933-3.6368 143.43-1.5911 6.7054-10.57 32.618-0.34095 6.5918-3.4095 2.8624-6.3815 0.0926-9.3024 44.324 0.11365 0.11366 10.797 3.4664 4.9438 5.1711 3.6937z" fill="#777" stroke="#000" stroke-width="4.77"/>
</svg>
