<?xml version="1.0" encoding="UTF-8"?>
<!-- Created with Inkscape (http://www.inkscape.org/) -->
<svg width="800" height="800" version="1.1" viewBox="0 0 800 800" xmlns="http://www.w3.org/2000/svg">
 <path d="m424.48 15.976 13.643 2.6448 0.44613 30.332 7.8099 5.717 16.834 0.44943 7.2096-5.457 0.37232-22.284 304.38 0.9341 0.55846 143.47 9.0558 5.2609 9.7905 10.064 0.22139 22.341-8.5226 10.661-9.6847 4.2464-0.22471 102.57-17.161 13.347 0.26327 122.22 15.623 15.517-0.10905 98.677 10.516 4.5516 9.1163 8.6801-0.0385 21.141-8.5931 12.237-10.292 6.5387-1.2326 147.2-297.83-3e-3 -4.9724-3.0942-0.70607-20.342-8.3365-9.6528-14.253-0.0351-9.5338 7.9256 0.18947 23.664-11.476 11.592-18.976 7.3159-21.345-0.29789-12.701-7.8947-9.4809-9.3565-0.89555-22.916-7.8099-5.717-16.834-0.44944-7.2096 5.457-0.37231 22.284-304.38-0.93411-0.55847-143.47-9.0558-5.2609-9.7905-10.064-0.2214-22.341 8.5226-10.661 9.6847-4.2464 0.22471-102.57 17.161-13.347-0.26327-122.22-15.623-15.517 0.10905-98.677-10.516-4.5516-9.1163-8.6801 0.038556-21.141 8.5931-12.237 10.292-6.5387 1.2326-147.2 297.83 3e-3 4.9723 3.0942 1.1555 21.915 7.887 8.0798 14.253 0.0352 11.107-7.4761 0.25995-29.507 12.824-5.2995 5.3803-9.226 39.136 0.26999z" fill="#777" stroke="#000" stroke-width="4.77"/>
</svg>
