<?xml version="1.0" encoding="UTF-8" standalone="no"?>
<svg
   xmlns:dc="http://purl.org/dc/elements/1.1/"
   xmlns:cc="http://creativecommons.org/ns#"
   xmlns:rdf="http://www.w3.org/1999/02/22-rdf-syntax-ns#"
   xmlns:svg="http://www.w3.org/2000/svg"
   xmlns="http://www.w3.org/2000/svg"
   viewBox="0 0 800 800"
   height="800"
   width="800"
   id="svg2"
   version="1.1">
  <metadata
     id="metadata8">
    <rdf:RDF>
      <cc:Work
         rdf:about="">
        <dc:format>image/svg+xml</dc:format>
        <dc:type
           rdf:resource="http://purl.org/dc/dcmitype/StillImage" />
        <dc:title></dc:title>
      </cc:Work>
    </rdf:RDF>
  </metadata>
  <defs
     id="defs6" />
  <path
     id="path4487"
     d="m 383.21817,792.47874 h 31.26445 l 9.66939,-14.50411 h 10.31407 l 9.99171,-9.99173 v -85.09082 l 9.66942,-9.6694 h 216.2725 v -242.0576 l 7.25205,-7.25207 h 108.49887 l 5.71799,-5.71799 v -36.94171 l -5.59394,-5.59394 H 677.49059 l -6.41241,-6.41239 V 128.04506 H 454.99706 l -9.57222,-9.57224 V 33.462321 L 434.59913,22.63658 H 423.08962 L 414.36281,7.5212613 h -29.85537 l -7.77149,13.4605957 h -17.36901 l -5.18449,8.979831 v 87.914462 l -10.78373,10.78376 H 126.65647 V 369.1197 l -6.20455,6.20455 H 12.557408 l -5.0361513,5.03612 v 39.84604 l 3.9684873,3.96851 H 120.21018 l 6.87939,6.87936 v 241.24037 h 214.87245 l 11.26152,11.26154 v 83.54912 l 8.95129,8.95129 h 11.6862 z"
     style="fill:#777777;fill-opacity:1;fill-rule:evenodd;stroke:#000000;stroke-width:5.04251337;stroke-linecap:butt;stroke-linejoin:miter;stroke-miterlimit:4;stroke-dasharray:none;stroke-opacity:1" />
  <rect
     y="-9.9435024"
     x="-14.463277"
     height="23.141243"
     width="23.141243"
     id="rect4482"
     style="fill:#777777;fill-opacity:0;stroke-width:4.37300014;stroke-miterlimit:4;stroke-dasharray:none" />
  <rect
     y="773.24292"
     x="778.84747"
     height="46.804146"
     width="28.926554"
     id="rect4484"
     style="fill:#777777;fill-opacity:0;stroke-width:4.37300014;stroke-miterlimit:4;stroke-dasharray:none" />
</svg>
