<?xml version="1.0" encoding="UTF-8" standalone="no"?>
<svg
   xmlns:dc="http://purl.org/dc/elements/1.1/"
   xmlns:cc="http://creativecommons.org/ns#"
   xmlns:rdf="http://www.w3.org/1999/02/22-rdf-syntax-ns#"
   xmlns:svg="http://www.w3.org/2000/svg"
   xmlns="http://www.w3.org/2000/svg"
   viewBox="0 0 800 800"
   height="800"
   width="800"
   id="svg2"
   version="1.1">
  <metadata
     id="metadata8">
    <rdf:RDF>
      <cc:Work
         rdf:about="">
        <dc:format>image/svg+xml</dc:format>
        <dc:type
           rdf:resource="http://purl.org/dc/dcmitype/StillImage" />
        <dc:title></dc:title>
      </cc:Work>
    </rdf:RDF>
  </metadata>
  <defs
     id="defs6" />
  <path
     id="path4487"
     d="m 380.49698,792.47685 h 39.03646 v -5.32119 l 9.19457,-9.19112 V 767.6447 h 41.29475 v -44.98811 h -30.00322 l -9.92045,-9.91672 v -40.87628 l 9.39619,-9.39267 h 29.88224 v -45.75403 h -39.68166 l -8.87193,-8.86863 v -31.44334 l 9.67845,-9.67483 h 24.19616 v -26.92833 c 0,0 7.09753,-22.73596 15.96949,-0.1612 v 26.76706 h 88.34377 l 6.29327,-6.29096 v -88.84084 h -28.19313 c 0,0 -16.7671,-5.81502 0,-16.19077 h 28.17325 v -22.57578 l 11.52022,-11.51597 h 29.08576 l 11.40618,11.40194 v 38.08244 h 43.57159 v -29.18896 l 10.49369,-10.48976 h 40.9443 l 9.35555,9.35209 v 30.31429 h 45.16646 V 431.1209 H 776.83 l 10.64631,-10.64236 h 5.00055 v -39.18317 h -5.80706 l -10.32372,-10.31988 h -8.54932 v -40.63441 h -44.84351 v 29.66958 l -9.8398,9.83612 h -40.81084 l -10.8076,-10.80359 v -27.4121 h -44.35965 v 37.89318 l -9.67842,9.67489 h -32.26153 l -9.03325,-9.02989 v -25.15465 h -29.03538 c 0,0 -16.0679,-8.28162 0,-15.1228 h 28.5006 v -88.36506 l -4.60002,-6.62776 h -87.67595 v 30.62043 c 0,0 -11.07141,12.09356 -19.62073,0 v -29.99207 h -23.2283 l -10.08174,-10.07797 v -30.07272 l 9.94031,-9.93658 h 39.22642 V 139.70752 H 441.41409 L 430.49316,128.79061 V 89.11446 l 10.40898,-10.405078 h 28.95931 V 34.129025 H 431.14761 V 22.357921 L 421.06592,12.279945 V 7.5231451 H 380.6583 v 7.2561439 l -8.95257,8.949249 v 9.755489 H 330.54608 V 77.79502 h 29.19981 l 10.9499,10.945855 V 127.8139 l -9.53642,9.5329 h -31.31299 v 45.80207 h 39.13849 l 10.49369,10.48977 v 30.92388 l -8.0401,8.03708 h -25.94525 v 32.11359 c 0,0 -7.74279,12.01296 -16.45335,0 v -28.86334 h -88.60259 l -5.46294,5.46089 v 86.87069 h 29.86503 c 0,0 12.90463,8.44822 0,17.15558 H 235.9653 v 24.67091 l -10.40435,10.40046 h -32.01957 l -9.71879,-9.71515 V 331.63099 H 139.8348 v 28.0198 l -9.92339,9.91966 H 87.82263 l -9.980406,-9.97666 V 331.83007 H 33.529231 v 38.53855 H 23.035548 L 12.88405,380.51634 H 7.5231469 V 419.853 h 7.5280761 l 9.296033,9.2926 h 8.497604 v 42.01611 h 45.168458 v -29.53102 l 9.809312,-9.80565 h 41.40442 l 9.35307,9.34957 v 29.53102 h 44.1419 V 431.711 l 10.83586,-10.83181 h 31.36699 l 8.72573,8.72246 v 25.82537 h 29.59904 c 0,0 15.77595,6.62981 0,15.73469 h -28.9717 v 88.25095 l 6.04528,6.04301 h 88.85411 V 538.4331 c 0,0 6.65572,-18.09933 17.10925,0 v 28.73287 h 24.86548 l 8.89681,8.89349 v 29.64503 l -9.8093,9.80566 h -40.14975 v 46.51732 h 29.59849 l 9.35583,9.35233 v 42.24693 c 0,0 -7.5008,9.27173 -8.38801,8.38487 -0.88717,-0.88684 -31.45499,0 -31.45499,0 v 44.46016 h 40.8103 v 11.40192 l 10.32665,10.32282 z"
     style="fill:#777777;fill-opacity:1;fill-rule:evenodd;stroke:#000000;stroke-width:5.04629374;stroke-linecap:butt;stroke-linejoin:miter;stroke-miterlimit:4;stroke-dasharray:none;stroke-opacity:1" />
  <path
     id="path4489"
     d="m 344.62146,425.01399 29.46575,29.4548 h 50.89541 l 29.24255,-29.23166 V 375.47638 L 424.64779,345.91 h -48.77476 l -31.08415,31.07259 z"
     style="fill:#000000;fill-opacity:0.5;fill-rule:evenodd;stroke:#000000;stroke-width:4.93794441;stroke-linecap:butt;stroke-linejoin:miter;stroke-miterlimit:4;stroke-dasharray:none;stroke-opacity:1" />
  <rect
     y="-2.3503065"
     x="-5.0621471"
     height="10.847458"
     width="10.847458"
     id="rect4483"
     style="fill:#777777;fill-opacity:0;stroke-width:4.37300014;stroke-miterlimit:4;stroke-dasharray:none" />
  <rect
     y="784.81354"
     x="788.2486"
     height="28.082489"
     width="17.355932"
     id="rect4485"
     style="fill:#777777;fill-opacity:0;stroke-width:4.37300014;stroke-miterlimit:4;stroke-dasharray:none" />
</svg>
