<?xml version="1.0" encoding="UTF-8"?>
<!-- Created with Inkscape (http://www.inkscape.org/) -->
<svg width="800" height="800" version="1.1" viewBox="0 0 800 800" xmlns="http://www.w3.org/2000/svg">
 <path d="m701.21 31.373 24.137 5.9596 20.804 10.951 14.499 15.661 9.8132 17.903 6.5015 17.62 3.3213 18.414-0.3774 65.079 7.4545 4.5584 6.0589 8.4241-0.16799 19.132-6.6771 7.9712-8.1363 5.0065-2.0595 355.77 8.1884 4.76 4.9428 7.4533v15.778l-4.8173 9.7731-8.9151 7.4868-2.4928 81.146-8.1803 19.83-10.869 17.513-18.364 14.543-22.325 11.291-25.295 4.6823-31.005 2.3631-32.549-0.88585-8.2658-4.2118-49.277 0.382-77.665 0.64756-5.1584-16.332-9.7109-8.63-22.796-0.59643-11.449 5.4239-6.0811 16.449-12.484 7.218-8.7371 6.8918-18.56 4.231-20.191-4.231-8.0335-22.47-11.02-11.617-19.254-4.5013-20.741 6.2954-6.4585 17.53h-31.37l-139.32-2.2227-43.527 0.48452-22.763-9.3643-20.753-13.043-14.288-16.359-7.7847-17.046-0.67734-19.029-0.89985-36.203-1.1047-38.969-10.171-5.3081-8.4142-9.1911 0.00479-21.423 8.6687-10.15 11.496-4.1742 1.3991-344.86-8.2054-6.2016-5.2568-12.042 0.10713-20.06 6.2389-8.4358 7.0602-4.7002 0.21907-75.498 8.9417-29.887 15.483-17.554 16.875-15.028 19.531-8.1066 24.755-3.8876h70.12l7.3811 4.6132h119.02l8.9002 18.84 42.288 0.15349 9.156-19.096 17.866-16.021 25.456 0.11674 13.835 7.8096 9.7668 10.699 7.9216 17.74 9.5588 5.6621 17.166-0.83462 12.795-7.218 10.932-14.678z" fill="#777" stroke="#000" stroke-width="4.77"/>
</svg>
