<?xml version="1.0" encoding="UTF-8" standalone="no"?>
<svg
   xmlns:dc="http://purl.org/dc/elements/1.1/"
   xmlns:cc="http://creativecommons.org/ns#"
   xmlns:rdf="http://www.w3.org/1999/02/22-rdf-syntax-ns#"
   xmlns:svg="http://www.w3.org/2000/svg"
   xmlns="http://www.w3.org/2000/svg"
   version="1.1"
   id="svg2"
   width="400"
   height="400"
   viewBox="0 0 400 400">
  <metadata
     id="metadata8">
    <rdf:RDF>
      <cc:Work
         rdf:about="">
        <dc:format>image/svg+xml</dc:format>
        <dc:type
           rdf:resource="http://purl.org/dc/dcmitype/StillImage" />
        <dc:title></dc:title>
      </cc:Work>
    </rdf:RDF>
  </metadata>
  <defs
     id="defs6" />
  <path
     style="fill:#777777;fill-opacity:1;fill-rule:evenodd;stroke:#000000;stroke-width:5.07464218;stroke-linecap:butt;stroke-linejoin:miter;stroke-miterlimit:4;stroke-dasharray:none;stroke-opacity:1"
     d="M 361.17243,28.319264 H 230.80412 L 225.20713,7.5373209 c -17.35913,0.2197956 -32.64249,0.021806 -50.41426,0 L 169.19588,28.319264 H 38.82757 c -3.536329,3.673949 -7.181155,7.167299 -10.50831,10.508306 v 130.36831 l -20.78194,5.59699 c 0.2243573,18.15132 0.025326,30.80572 0,50.41426 l 20.78194,5.59699 v 130.36831 c 3.67395,3.53633 7.167302,7.18115 10.50831,10.50831 h 130.36831 l 5.59699,20.78194 c 17.35913,-0.2198 32.64249,-0.0218 50.41426,0 l 5.59699,-20.78194 h 130.36831 c 3.53633,-3.67395 7.18115,-7.1673 10.50831,-10.50831 V 230.80412 l 20.78194,-5.59699 c -0.22436,-18.15132 -0.0253,-30.80572 0,-50.41426 l -20.78194,-5.59699 V 38.82757 c -3.67395,-3.53633 -7.1673,-7.18115 -10.50831,-10.508306 z"
     id="path4487" />
  <rect
     style="fill:#777777;fill-opacity:0;stroke-width:4.37300014;stroke-miterlimit:4;stroke-dasharray:none"
     id="rect4482"
     width="8.3163843"
     height="8.3163843"
     x="-1.8079096"
     y="-1.7175144" />
  <rect
     style="fill:#777777;fill-opacity:0;stroke-width:4.37300014;stroke-miterlimit:4;stroke-dasharray:none"
     id="rect4484"
     width="8.6779661"
     height="14.041245"
     x="393.40112"
     y="391.68362" />
</svg>
