<?xml version="1.0" encoding="UTF-8"?>
<!-- Created with Inkscape (http://www.inkscape.org/) -->
<svg width="800" height="800" version="1.1" viewBox="0 0 800 800" xmlns="http://www.w3.org/2000/svg">
 <g fill="#777" stroke="#000" stroke-width="4.77">
  <path d="m474.47 79.078 9.6436-28.288 10.287-4.5004 10.929 1.9287 10.929-5.1433 8.3578-7.7149 14.144 0.64291 7.072 8.3578 6.4291 0.64291 19.93 1.9287 14.144 5.1433 17.359-0.32146 19.108-3.536 5.9651 4.5004 9.9651 8.0364 8.3578 6.7505 51.111-2.2502 16.394-4.1789 8.6793-1.2858 15.751 0.32146 10.287 9.3222 4.8218 8.3578 10.608 9.3222 5.4647 15.751 3.2146 14.787-4.1789 11.251-13.18 9.9651-18.644 5.4647h-9.3222l-7.7149 4.1789-1.9287 10.287 2.8931 7.072 5.7862 4.8218 12.215 0.96436 17.359 6.4291 9.6436 7.072 9.0007 0.64291 8.0364 1.2858 8.3578 4.5807-0.0804 8.84 4e-5 10.97 0.0804 7.1122-9.9651 4.5004h-15.751l-10.929 3.536-21.537 18.644-16.394 14.465-5.7862 8.3578-1.2858 6.7506 0.64291 4.5004 12.858 9.072 18.644 3.1433 15.108 0.96436 6.7506 3.8575 6.1076 3.536 1.6073 11.251 2.8931 11.572 3.536 11.894-9.0007 13.823-10.929 24.752-2.8931 19.609 2.5716 11.894 5.4647 9.3222-2.2502 24.752 0.64291 26.359 0.64291 15.43 8.6793 10.287 1.9287 8.6793-5.4647 12.537-6.4291 1.2858-4.5004 15.108-0.64291 6.7506-15.108 4.8218-13.823 1.2858-7.3935 5.1433-3.536 6.1076 4.1789 5.4647 14.787 9.3222 17.359 6.4291 10.287 6.1076 28.77 6.5095v7.956l0.24109 12.697-13.421 7.6346-15.269 6.3487-14.144 8.3578-18.403 14.064-12.858 8.4382-9.3024 6.563-2.0289 10.153 2.4109 8.7596 20.493 6.8309 26.118 4.0182 14.144 8.3578 7.3131 9.6436v14.465l-4.0986 10.287-13.823 15.751-18.001 4.8218-108.65-1.1251-19.287 11.331-31.342 15.108-18.889 1.6532-18.48-0.60843-8.9204-6.0273-32.547-0.32147-24.189-0.0804-11.894-7.072-6.7506-11.251-2.2502-19.609-0.32145-8.3578-5.4647-3.8574-11.572-0.64291-9.6436 9.0007-4.8218 20.895-7.3935 12.858-4.8218 15.43-1.6073 12.537-12.537-0.64291-10.608-0.64291-1.9287-15.108 0.32145-9.3222-11.894-16.073-8.3578-4.1789-11.572-25.716-6.7506-5.7862-6.4291-2.8931-9.0007 2.5716s-3.2146 12.858-5.1433 14.144-14.287 29.252-14.287 29.252l-22.359 0.32146-20.573 11.572-15.108-7.072-21.859-1.9287-13.823-9.6436-19.609-2.5716-16.073 4.5004-10.608 3.536-9.6436-9.9651-18.966-9.6436-41.146 0.96436-24.752 9.6436-16.394 2.5716s-10.237-9.6138-11.572-10.929c-1.6029-1.5792-6.1076-10.929-6.1076-10.929l-12.858-12.296-2.9735-40.182 2.2763-3.9441 12.269-6.2621 17.68-5.1433 15.751 0.64291 3.3989-6.3078 0.78006-5.586-1.8078-6.4605-4.9427-4.7904-15.146-5.6135-17.964-9.1734-15.281-8.072-18.417-0.13483 0.00167-29.235 23.088-0.16881 22.502-17.359 14.543-13.309 13.423-8.8709 6.7862-6.4486 0.60726-8.6598-2.8128-6.7274-6.4347-6.0366-20.628-3.2697-15.771-1.3248-5.4439-2.6054-3.5569-4.1451-6.8804-27.986 1.1588-14.049 5.2347-8.6411 2.497-19.68 6.8804-5.0491 1.5293-19.934-5.497-16.927-0.10084-18.566 0.64291-34.717-8.033-24.375 0.34095-20.589 10.365-1.9839 3.8218-25.794 32.554-1.1137 5.7586-8.4623-0.5958-11.705-7.2798-9.6564-24.336-3.7438-14.164-9.0592-14.164-5.5555-15.961-2e-3 -0.13148-31.293 24.413-0.034 13.84-5.7522 12.858-10.929 5.4647-10.287 12.855-7.072 15.621-2.6463 17.55 12.482 8.6208 14.595 2.2502 11.251 8.0364 10.287 14.465 2.2502 13.881 6.5266 12.404-4.1043 8.4325-7.5656 2.2502-15.751-7.7149-16.073v-50.147l-5.4647-39.539-5.6725-21.791 12.492-2.2596 12.147-12.274 13.501 0.96436 28.288-14.144 28.931-0.32146 10.287 7.072 18.644-0.96436 11.251 6.1043 33.298-0.16546 9.8938 11.968 6.6336 18.417 2.2502 9.9651 8.7044 1.5996 7.6898-2.2425 10.929-21.216 5.7862-19.287 6.5996-13.102-0.0747-11.254 22.979 0.09582 0.19466 10.784 2.4466 8.976 16.394 24.752 17.68 24.752 16.555 7.7149z"/>
  <path d="m712.14 31.709 16.138-1.4775 13.07 3.6368 3.8642 2.273 0.45461 4.887-3.1822 4.4324-16.479 0.90921-17.957-1.2502-6.3645-2.8413-0.56826-2.614 2.9549-3.8641z"/>
 </g>
</svg>
