<?xml version="1.0" encoding="UTF-8" standalone="no"?>
<svg
   xmlns:dc="http://purl.org/dc/elements/1.1/"
   xmlns:cc="http://creativecommons.org/ns#"
   xmlns:rdf="http://www.w3.org/1999/02/22-rdf-syntax-ns#"
   xmlns:svg="http://www.w3.org/2000/svg"
   xmlns="http://www.w3.org/2000/svg"
   viewBox="0 0 400 400"
   height="400"
   width="400"
   id="svg2"
   version="1.1">
  <metadata
     id="metadata8">
    <rdf:RDF>
      <cc:Work
         rdf:about="">
        <dc:format>image/svg+xml</dc:format>
        <dc:type
           rdf:resource="http://purl.org/dc/dcmitype/StillImage" />
        <dc:title></dc:title>
      </cc:Work>
    </rdf:RDF>
  </metadata>
  <defs
     id="defs6" />
  <path
     id="path4487"
     d="m 97.509542,340.03605 h 39.290108 v 52.65522 H 97.026464 Z"
     style="fill:#777777;fill-opacity:1;fill-rule:evenodd;stroke:#000000;stroke-width:4.47856808;stroke-linecap:butt;stroke-linejoin:miter;stroke-miterlimit:4;stroke-dasharray:none;stroke-opacity:1" />
  <path
     id="path4489"
     d="m 30.520343,392.76072 h 43.722971 l 8.881229,-8.88122 V 141.97523 l -4.401305,-4.40129 v -19.10836 l 4.779771,-8.2788 V 21.206445 L 80.034241,8.260816 H 68.847083 L 65.71121,19.964049 V 120.07585 H 33.743621 v 17.39069 l -4.347677,4.34769 z"
     style="fill:#777777;fill-opacity:1;fill-rule:evenodd;stroke:#000000;stroke-width:4.47856808;stroke-linecap:butt;stroke-linejoin:miter;stroke-miterlimit:4;stroke-dasharray:none;stroke-opacity:1" />
  <path
     style="fill:#777777;fill-opacity:1;fill-rule:evenodd;stroke:#000000;stroke-width:4.47856808;stroke-linecap:butt;stroke-linejoin:miter;stroke-miterlimit:4;stroke-dasharray:none;stroke-opacity:1"
     d="m 302.49029,340.03605 h -39.2901 v 52.65522 h 39.77317 z"
     id="path4491" />
  <path
     style="fill:#777777;fill-opacity:1;fill-rule:evenodd;stroke:#000000;stroke-width:4.47856808;stroke-linecap:butt;stroke-linejoin:miter;stroke-miterlimit:4;stroke-dasharray:none;stroke-opacity:1"
     d="m 369.47948,392.76072 h -43.72294 l -8.88126,-8.88122 V 141.97523 l 4.40132,-4.40129 v -19.10836 l -4.77978,-8.2788 V 21.206445 l 3.46876,-12.945629 h 11.18718 l 3.13585,11.703233 V 120.07585 h 31.9676 v 17.39069 l 4.34767,4.34769 z"
     id="path4493" />
  <path
     id="path4495"
     d="M 253.38179,316.84844 H 146.62218 V 191.73198 l -4.99177,-4.99177 h -40.28796 l -4.703104,-4.70309 v -38.40624 l 9.524854,-9.52485 h 187.14943 l 9.20305,9.20303 v 38.3517 l -5.17086,5.17082 h -38.6462 l -5.72652,5.72651 z"
     style="fill:#777777;fill-opacity:1;fill-rule:evenodd;stroke:#000000;stroke-width:4.47856808;stroke-linecap:butt;stroke-linejoin:miter;stroke-miterlimit:4;stroke-dasharray:none;stroke-opacity:1" />
  <path
     id="path4497"
     d="m 186.28344,182.1162 v 23.00011 h 27.21299 v -22.7724 z"
     style="fill:#000000;fill-opacity:0.5;fill-rule:evenodd;stroke:#000000;stroke-width:4.47856808;stroke-linecap:butt;stroke-linejoin:miter;stroke-miterlimit:4;stroke-dasharray:none;stroke-opacity:1" />
  <path
     id="path4499"
     d="m 123.77324,105.71486 9.22282,9.22282 h 132.94569 l 9.99088,-9.99088 V 21.528502 L 272.35647,8.182016 h -9.95725 l -3.39711,12.678173 V 88.83697 H 141.95246 V 21.528502 l -3.82878,-14.28922 h -10.98552 l -3.55229,13.257291 z"
     style="fill:#777777;fill-opacity:1;fill-rule:evenodd;stroke:#000000;stroke-width:4.47856808;stroke-linecap:butt;stroke-linejoin:miter;stroke-miterlimit:4;stroke-dasharray:none;stroke-opacity:1" />
  <path
     id="path4501"
     d="m 186.73888,18.155036 v 42.584365 l 4.49755,4.497542 h 17.13621 l 4.52602,-4.526015 v -42.66974 l -4.42639,-4.426382 h -17.40663 z"
     style="fill:#777777;fill-opacity:1;fill-rule:evenodd;stroke:#000000;stroke-width:4.47856808;stroke-linecap:butt;stroke-linejoin:miter;stroke-miterlimit:4;stroke-dasharray:none;stroke-opacity:1" />
  <rect
     y="-2.1160624"
     x="-1.1505467"
     height="9.7796469"
     width="9.7796469"
     id="rect4489"
     style="fill:#777777;fill-opacity:0;stroke-width:4.37300014;stroke-miterlimit:4;stroke-dasharray:none" />
  <rect
     y="391.94617"
     x="391.76114"
     height="11.505466"
     width="11.505466"
     id="rect4491"
     style="fill:#777777;fill-opacity:0;stroke-width:4.37300014;stroke-miterlimit:4;stroke-dasharray:none" />
</svg>
